<svg width="310" height="335" viewBox="0 0 310 335" fill="none" xmlns="http://www.w3.org/2000/svg">
<g filter="url(#filter0_dddddd_525_218701)">
<path d="M170.759 31.6445C210.85 39.5714 278 77.913 278 162.666C278 193.535 256.369 254.13 187.222 274.252C169.768 278.901 129.966 284.359 110.393 268.993L43.4124 297.933L60.5451 234.008C46.292 213.81 21.5815 164.13 36.7645 126.995" stroke="white" stroke-width="13.2622"/>
</g>
<path d="M137.366 110.968C133.495 109.508 129.085 108.773 124.126 108.773C120.406 108.773 116.999 109.194 113.89 110.016L117.667 120.947L134.751 126.857L137.361 110.968H137.366Z" fill="#057EDD"/>
<path d="M154.092 135.703L144.802 115.204C142.595 113.417 140.109 112.006 137.348 110.962L134.739 126.851L154.092 135.703Z" fill="#03ACFA"/>
<path d="M155.61 133.367C153.456 125.369 149.855 119.309 144.794 115.217L154.084 135.716L155.61 133.371V133.367Z" fill="#057EDD"/>
<path d="M156.369 136.525C156.139 135.437 155.882 134.389 155.604 133.362L154.077 135.707L156.369 136.525Z" fill="#03ACFA"/>
<path d="M158.014 154.589C158.014 154.527 158.014 154.465 158.014 154.404C158.014 147.711 157.466 141.752 156.369 136.532L154.077 135.714L158.01 154.589H158.014Z" fill="#057EDD"/>
<path d="M117.665 120.944L119.337 125.783C120.814 125.367 122.416 125.129 124.181 125.129C127.034 125.129 129.507 125.677 131.608 126.765C132.404 127.181 133.108 127.65 133.762 128.145L134.749 126.849L117.665 120.939V120.944Z" fill="#03ACFA"/>
<path d="M134.73 126.846L133.744 128.142C134.819 128.956 135.73 129.872 136.433 130.912C137.566 132.592 138.468 134.795 139.14 137.52C139.295 138.157 139.437 138.785 139.57 139.409L154.083 135.693L134.73 126.842V126.846Z" fill="#057EDD"/>
<path d="M139.582 139.414C140.016 141.467 140.312 143.462 140.476 145.39C140.582 146.66 140.662 148.049 140.71 149.553L158.024 154.64C158.024 154.64 158.024 154.596 158.024 154.574L154.092 135.698L139.578 139.414H139.582Z" fill="#03ACFA"/>
<path d="M140.779 156.985L157.301 166.774C157.779 163.041 158.031 159.011 158.04 154.649L140.792 155.711C140.792 156.136 140.788 156.574 140.779 156.981V156.985Z" fill="#03ACFA"/>
<path d="M140.659 160.163L148.586 178.817L155.057 177.349C156.053 174.164 156.787 170.634 157.283 166.772L140.76 156.982C140.743 158.106 140.703 159.154 140.659 160.163Z" fill="#057EDD"/>
<path d="M140.785 154.335C140.785 154.812 140.777 155.259 140.777 155.715L158.024 154.653L140.71 149.562C140.763 151.039 140.79 152.631 140.79 154.335H140.785Z" fill="#057EDD"/>
<path d="M140.659 160.167C140.61 161.26 140.548 162.308 140.469 163.268C140.256 165.785 139.818 168.408 139.146 171.133C139.084 171.385 139.013 171.62 138.943 171.863L148.582 178.821L140.655 160.167H140.659Z" fill="#87BAD0"/>
<path d="M138.946 171.869C138.415 173.811 137.765 175.479 136.987 176.877L139.411 183.888L148.585 178.827L138.946 171.869Z" fill="#057EDD"/>
<path d="M152.802 183.129C153.656 181.347 154.413 179.431 155.058 177.361L148.587 178.829L152.802 183.129Z" fill="#03ACFA"/>
<path d="M141.757 190.67L143.177 194.784C147.211 192.006 150.41 188.109 152.798 183.119L148.583 178.819L141.757 190.67Z" fill="#057EDD"/>
<path d="M139.406 183.88L141.751 190.67L148.581 178.819L139.406 183.88Z" fill="#03ACFA"/>
<path d="M105.783 113.52C104.721 114.201 103.726 114.97 102.771 115.798L107.084 117.288L105.779 113.52H105.783Z" fill="#057EDD"/>
<path d="M111.836 131.032L107.085 117.284L102.772 115.793C101.958 116.496 101.171 117.239 100.437 118.053L111.668 131.333C111.726 131.236 111.779 131.13 111.841 131.037L111.836 131.032Z" fill="#03ACFA"/>
<path d="M100.391 118.107C95.9274 123.057 92.9415 129.998 91.4109 138.894L111.428 131.48L100.391 118.107Z" fill="#057EDD"/>
<path d="M111.617 131.411C111.63 131.385 111.647 131.358 111.661 131.336L100.429 118.057C100.429 118.057 100.398 118.092 100.385 118.11L111.422 131.482L111.617 131.411Z" fill="#C23636"/>
<path d="M109.197 137.537C109.785 135.144 110.568 133.184 111.51 131.596L111.422 131.485L91.405 138.904C91.2723 139.682 91.1485 140.474 91.0334 141.279L108.179 142.792C108.423 141.085 108.754 139.333 109.197 137.532V137.537Z" fill="#71AAD8"/>
<path d="M111.525 131.59C111.56 131.532 111.595 131.466 111.631 131.408L111.436 131.479L111.525 131.59Z" fill="#CF5555"/>
<path d="M107.721 160.911C107.614 158.942 107.561 156.761 107.561 154.333C107.561 153.807 107.57 153.316 107.575 152.811L90.7561 143.42C90.6146 144.72 90.504 146.065 90.4155 147.441L97.9091 159.026L107.725 160.911H107.721Z" fill="#87BAD0"/>
<path d="M90.4136 147.442C90.272 149.667 90.1924 151.981 90.1924 154.396C90.1924 157.67 90.3295 160.757 90.5949 163.677L97.9071 159.028L90.4136 147.442Z" fill="#057EDD"/>
<path d="M108.337 167.006C108.129 165.737 107.969 164.494 107.868 163.277C107.806 162.534 107.757 161.742 107.713 160.92L97.897 159.035L108.337 167.006Z" fill="#03ACFA"/>
<path d="M98.9168 185.205L97.8949 159.035L90.5872 163.684C91.2463 171.01 92.7193 177.238 95.024 182.347L98.9212 185.205H98.9168Z" fill="#87BAD0"/>
<path d="M98.9188 185.205L109.469 172.142C109.376 171.81 109.274 171.492 109.19 171.143C108.845 169.736 108.562 168.36 108.337 167.006L97.897 159.035L98.9188 185.205Z" fill="#03ACFA"/>
<path d="M122.46 189.669L118.793 182.853C118.081 182.623 117.391 182.357 116.745 182.021C114.648 180.933 113.033 179.526 111.901 177.805C110.914 176.306 110.114 174.399 109.477 172.134L98.9265 185.197L122.464 189.669H122.46Z" fill="#87BAD0"/>
<path d="M131.183 186.994L129.732 182.801C128.074 183.363 126.225 183.659 124.176 183.659C122.128 183.659 120.412 183.38 118.797 182.854L122.465 189.671L131.183 186.994Z" fill="#057EDD"/>
<path d="M132.927 199.108C133.688 198.94 134.44 198.758 135.166 198.546L131.171 186.996L122.452 189.672L132.927 199.108Z" fill="#03ACFA"/>
<path d="M98.9367 185.203L97.6052 187.061C99.3437 189.728 101.392 191.98 103.745 193.825L122.475 189.675L98.9367 185.203Z" fill="#03ACFA"/>
<path d="M103.765 193.84C107.645 196.875 112.352 198.795 117.894 199.591L120.664 199.883C121.787 199.967 122.933 200.02 124.118 200.02C127.286 200.02 130.218 199.706 132.943 199.109L122.468 189.673C122.468 189.673 112.529 191.894 103.765 193.845V193.84Z" fill="#87BAD0"/>
<path d="M103.714 193.823C103.714 193.823 103.732 193.836 103.74 193.845C112.504 191.898 122.443 189.673 122.443 189.673L103.714 193.823Z" fill="#D66363"/>
<path d="M95.0312 182.338C95.7921 184.019 96.637 185.585 97.5748 187.027C98.3843 185.93 98.9284 185.2 98.9284 185.2L95.0312 182.342V182.338Z" fill="#057EDD"/>
<path d="M97.5755 187.03C97.5755 187.03 97.5887 187.052 97.5932 187.061L98.9247 185.203C98.9247 185.203 98.3806 185.937 97.571 187.03H97.5755Z" fill="#CF5555"/>
<path d="M120.657 199.873L117.888 199.581C118.786 199.709 119.715 199.802 120.657 199.873Z" fill="#EB796D"/>
<path d="M107.865 145.397C107.936 144.543 108.042 143.668 108.166 142.787L91.0201 141.274C90.9228 141.982 90.8211 142.686 90.7415 143.415L107.556 152.807C107.582 150.011 107.679 147.525 107.856 145.393L107.865 145.397Z" fill="#03ACFA"/>
<path d="M219.794 122.51L208.854 106.572H186.85V115.28L219.794 125.367V122.51Z" fill="#60C1EC"/>
<path d="M219.788 106.572H208.848L219.788 122.51V106.572Z" fill="#0777DC"/>
<path d="M219.794 128.37V125.369L186.85 115.281V118.787L193.862 123.572H200.819V128.315L211.67 135.716L219.794 128.37Z" fill="#0777DC"/>
<path d="M200.817 128.314V144.798L211.669 135.716L200.817 128.314Z" fill="#60C1FA"/>
<path d="M186.85 123.567H193.862L186.85 118.782V123.567Z" fill="#60C1FA"/>
<path d="M219.786 146.35V128.365L211.663 135.711L219.786 146.35Z" fill="#60C1FA"/>
<path d="M219.793 146.356L211.669 135.717L200.817 144.799V148.746H219.793V146.356Z" fill="#0777DC"/>
<path d="M200.817 157.957V161.361L204.268 157.957H200.817Z" fill="#60C1FA"/>
<path d="M219.795 158.907V157.957H212.023L214.871 171.083L219.795 158.907Z" fill="#80C4F1"/>
<path d="M212.021 157.957H204.268L200.817 161.361V173.362L214.87 171.083L212.021 157.957Z" fill="#2BBEFD"/>
<path d="M219.795 176.889V158.909L214.871 171.086L219.795 176.889Z" fill="#057EDD"/>
<path d="M214.87 171.083L200.817 173.362V191.031L202.082 192.361L214.87 171.083Z" fill="#057EDD"/>
<path d="M202.087 192.361L219.799 184.394V176.886L214.875 171.083L202.087 192.361Z" fill="#03ACFA"/>
<path d="M219.799 197.665V184.391L202.087 192.357L219.799 197.665Z" fill="#2BBEFD"/>
<path d="M200.817 191.032V193.422L202.082 192.361L200.817 191.032Z" fill="#99C7E1"/>
<path d="M219.793 197.67L202.082 192.362L200.817 193.422V200.129H219.793V197.67Z" fill="#03ACFA"/>
<defs>
<filter id="filter0_dddddd_525_218701" x="0.291885" y="0.0628815" width="309.416" height="334.471" filterUnits="userSpaceOnUse" color-interpolation-filters="sRGB">
<feFlood flood-opacity="0" result="BackgroundImageFix"/>
<feColorMatrix in="SourceAlpha" type="matrix" values="0 0 0 0 0 0 0 0 0 0 0 0 0 0 0 0 0 0 127 0" result="hardAlpha"/>
<feOffset/>
<feGaussianBlur stdDeviation="0.298533"/>
<feColorMatrix type="matrix" values="0 0 0 0 0.0352941 0 0 0 0 0.494118 0 0 0 0 0.878431 0 0 0 1 0"/>
<feBlend mode="normal" in2="BackgroundImageFix" result="effect1_dropShadow_525_218701"/>
<feColorMatrix in="SourceAlpha" type="matrix" values="0 0 0 0 0 0 0 0 0 0 0 0 0 0 0 0 0 0 127 0" result="hardAlpha"/>
<feOffset/>
<feGaussianBlur stdDeviation="0.597066"/>
<feColorMatrix type="matrix" values="0 0 0 0 0.0352941 0 0 0 0 0.494118 0 0 0 0 0.878431 0 0 0 1 0"/>
<feBlend mode="normal" in2="effect1_dropShadow_525_218701" result="effect2_dropShadow_525_218701"/>
<feColorMatrix in="SourceAlpha" type="matrix" values="0 0 0 0 0 0 0 0 0 0 0 0 0 0 0 0 0 0 127 0" result="hardAlpha"/>
<feOffset/>
<feGaussianBlur stdDeviation="2.08973"/>
<feColorMatrix type="matrix" values="0 0 0 0 0.0352941 0 0 0 0 0.494118 0 0 0 0 0.878431 0 0 0 1 0"/>
<feBlend mode="normal" in2="effect2_dropShadow_525_218701" result="effect3_dropShadow_525_218701"/>
<feColorMatrix in="SourceAlpha" type="matrix" values="0 0 0 0 0 0 0 0 0 0 0 0 0 0 0 0 0 0 127 0" result="hardAlpha"/>
<feOffset/>
<feGaussianBlur stdDeviation="4.17946"/>
<feColorMatrix type="matrix" values="0 0 0 0 0.0352941 0 0 0 0 0.494118 0 0 0 0 0.878431 0 0 0 1 0"/>
<feBlend mode="normal" in2="effect3_dropShadow_525_218701" result="effect4_dropShadow_525_218701"/>
<feColorMatrix in="SourceAlpha" type="matrix" values="0 0 0 0 0 0 0 0 0 0 0 0 0 0 0 0 0 0 127 0" result="hardAlpha"/>
<feOffset/>
<feGaussianBlur stdDeviation="7.16479"/>
<feColorMatrix type="matrix" values="0 0 0 0 0.0352941 0 0 0 0 0.494118 0 0 0 0 0.878431 0 0 0 1 0"/>
<feBlend mode="normal" in2="effect4_dropShadow_525_218701" result="effect5_dropShadow_525_218701"/>
<feColorMatrix in="SourceAlpha" type="matrix" values="0 0 0 0 0 0 0 0 0 0 0 0 0 0 0 0 0 0 127 0" result="hardAlpha"/>
<feOffset/>
<feGaussianBlur stdDeviation="12.5384"/>
<feColorMatrix type="matrix" values="0 0 0 0 0.0352941 0 0 0 0 0.494118 0 0 0 0 0.878431 0 0 0 1 0"/>
<feBlend mode="normal" in2="effect5_dropShadow_525_218701" result="effect6_dropShadow_525_218701"/>
<feBlend mode="normal" in="SourceGraphic" in2="effect6_dropShadow_525_218701" result="shape"/>
</filter>
</defs>
</svg>
