<svg width="310" height="335" viewBox="0 0 310 335" fill="none" xmlns="http://www.w3.org/2000/svg">
<g filter="url(#filter0_dddddd_525_218776)">
<path d="M170.759 32C210.85 39.9269 278 78.2685 278 163.022C278 193.891 256.369 254.485 187.222 274.607C169.768 279.257 129.966 284.714 110.393 269.348L43.4124 298.289L60.545 234.363C46.292 214.165 21.5815 164.485 36.7645 127.351" stroke="white" stroke-width="13.2622"/>
</g>
<path d="M193.169 108.267L194.289 111.5L197.233 107.436C195.835 107.647 194.473 107.912 193.169 108.267Z" fill="#057EDD"/>
<path d="M212.502 125.876L227.374 116.966C226.785 116.246 226.155 115.55 225.481 114.875C220.253 109.647 213.055 107.013 203.911 106.954L206.618 122.545C209.113 123.075 211.077 124.185 212.502 125.876Z" fill="#03ACFA"/>
<path d="M202.853 122.168C204.229 122.168 205.479 122.303 206.63 122.546L203.923 106.955C203.82 106.955 203.725 106.946 203.622 106.946C201.379 106.946 199.257 107.126 197.229 107.432L194.285 111.496L198.223 122.887C199.616 122.415 201.154 122.164 202.858 122.164L202.853 122.168Z" fill="#2BBEFD"/>
<path d="M215.381 135.728C215.381 137.562 215.035 139.504 214.374 141.554L219.067 150.549L229.254 119.602C228.683 118.699 228.067 117.813 227.38 116.968L212.508 125.878C214.415 128.135 215.381 131.407 215.381 135.728Z" fill="#2BBEFD"/>
<path d="M214.368 141.549C213.388 144.588 211.685 147.865 209.248 151.376L219.066 150.544L214.373 141.549H214.368Z" fill="#057EDD"/>
<path d="M209.259 151.383C209.209 151.45 209.169 151.518 209.124 151.59C208.917 151.886 208.692 152.188 208.459 152.502L214.406 169.702C215.103 169.001 215.867 168.228 216.685 167.391L219.077 150.556L209.259 151.387V151.383Z" fill="#2BBEFD"/>
<path d="M209.248 151.387L219.062 150.556L209.248 151.387Z" fill="#F89A8A"/>
<path d="M225.779 156.522C226.777 154.976 227.788 153.295 228.822 151.451C231.686 146.677 233.196 141.53 233.39 136.014L232.153 125.917C231.47 123.669 230.508 121.565 229.267 119.601L219.08 150.548L225.779 156.527V156.522Z" fill="#057EDD"/>
<path d="M216.678 167.396C217.146 166.924 217.627 166.434 218.135 165.917C220.818 163.188 222.886 160.783 224.338 158.693C224.811 158.014 225.292 157.285 225.773 156.535L219.074 150.556L216.683 167.391L216.678 167.396Z" fill="#03ACFA"/>
<path d="M233.416 134.825C233.416 131.638 232.98 128.671 232.139 125.915L233.375 136.012C233.389 135.616 233.416 135.225 233.416 134.825Z" fill="#87BAD0"/>
<path d="M187.874 120.329L184.934 111.828C183.562 112.691 182.254 113.649 181.04 114.741C178.703 116.854 176.846 119.363 175.443 122.262L179.471 131.919L187.874 120.329Z" fill="#03ACFA"/>
<path d="M190.823 130.656C190.926 130.359 191.016 130.054 191.138 129.77L187.878 120.339L179.476 131.928L190.823 130.656Z" fill="#2BBEFD"/>
<path d="M177.319 137.518H189.695C189.74 134.92 190.135 132.645 190.837 130.653L179.49 131.926L177.314 137.518H177.319Z" fill="#03ACFA"/>
<path d="M175.457 122.271C174.41 124.437 173.619 126.824 173.093 129.432L179.485 131.927L175.457 122.271Z" fill="#2BBEFD"/>
<path d="M179.474 131.929L173.081 129.434C172.623 131.713 172.362 134.158 172.303 136.775L179.474 131.929Z" fill="#03ACFA"/>
<path d="M172.304 136.768C172.3 137.015 172.286 137.263 172.286 137.514H177.303L179.479 131.922L172.309 136.768H172.304Z" fill="#057EDD"/>
<path d="M221.208 189.364L224.112 197.766L230.114 195.536L221.208 189.364Z" fill="#03ACFA"/>
<path d="M222.33 184.585H219.561L221.211 189.359L230.117 195.532L222.33 184.585Z" fill="#057EDD"/>
<path d="M232.759 184.585H222.307L230.093 195.532L232.759 184.585Z" fill="#03ACFA"/>
<path d="M235.598 198.193L230.104 195.532L227.231 199.29H235.598V198.193Z" fill="#057EDD"/>
<path d="M224.091 197.762L224.622 199.29H227.22L230.093 195.532L224.091 197.762Z" fill="#03ACFA"/>
<path d="M235.591 198.193V184.585H232.763L230.097 195.532L235.591 198.193Z" fill="#03ACFA"/>
<path d="M198.19 163.471C196.293 165.309 194.585 166.91 193.124 168.213C191.613 169.558 189.599 171.32 187.095 173.487L191.303 178.301L198.19 163.471Z" fill="#2BBEFD"/>
<path d="M207.182 176.218L201.612 160.106C200.394 161.324 199.265 162.426 198.186 163.473L191.299 178.304L207.182 176.218Z" fill="#057EDD"/>
<path d="M187.12 173.491C185.847 174.593 184.454 175.797 182.925 177.115L191.327 178.306L187.12 173.491Z" fill="#057EDD"/>
<path d="M200.807 199.292H205.995L210.886 186.938L210.073 184.582H198.362C199.553 183.476 201.706 181.534 204.822 178.765C205.712 177.969 206.53 177.237 207.294 176.544L207.182 176.221L191.299 178.307L200.807 199.296V199.292Z" fill="#03ACFA"/>
<path d="M180.833 199.294L191.334 178.304L182.932 177.113C182.883 177.153 182.842 177.194 182.793 177.234C178.189 181.199 174.777 184.162 172.561 186.122V193.423L176.373 199.294H180.837H180.833Z" fill="#03ACFA"/>
<path d="M180.832 199.294H200.841L191.333 178.304L180.832 199.294Z" fill="#057EDD"/>
<path d="M172.561 193.423V199.29H176.373L172.561 193.423Z" fill="#057EDD"/>
<path d="M215.167 199.289L210.896 186.936L206.005 199.289H215.167Z" fill="#03ACFA"/>
<path d="M129.032 111.391C125.161 109.932 120.751 109.197 115.792 109.197C112.072 109.197 108.666 109.618 105.556 110.44L109.334 121.371L126.418 127.281L129.028 111.391H129.032Z" fill="#057EDD"/>
<path d="M145.758 136.127L136.469 115.628C134.261 113.841 131.775 112.43 129.015 111.386L126.405 127.275L145.758 136.127Z" fill="#03ACFA"/>
<path d="M147.276 133.791C145.122 125.793 141.521 119.732 136.46 115.641L145.75 136.14L147.276 133.795V133.791Z" fill="#057EDD"/>
<path d="M148.035 136.949C147.805 135.861 147.548 134.812 147.27 133.786L145.744 136.131L148.035 136.949Z" fill="#03ACFA"/>
<path d="M149.681 155.013C149.681 154.951 149.681 154.889 149.681 154.827C149.681 148.134 149.132 142.176 148.035 136.956L145.744 136.138L149.676 155.013H149.681Z" fill="#057EDD"/>
<path d="M109.331 121.368L111.003 126.207C112.481 125.791 114.082 125.552 115.847 125.552C118.7 125.552 121.173 126.101 123.274 127.189C124.071 127.605 124.774 128.074 125.429 128.569L126.415 127.273L109.331 121.363V121.368Z" fill="#03ACFA"/>
<path d="M126.396 127.271L125.41 128.567C126.485 129.381 127.396 130.297 128.099 131.336C129.232 133.017 130.134 135.22 130.806 137.945C130.961 138.582 131.103 139.21 131.236 139.834L145.749 136.118L126.396 127.267V127.271Z" fill="#057EDD"/>
<path d="M131.248 139.837C131.682 141.889 131.978 143.885 132.142 145.813C132.248 147.083 132.327 148.472 132.376 149.976L149.69 155.063C149.69 155.063 149.69 155.019 149.69 154.997L145.757 136.121L131.244 139.837H131.248Z" fill="#03ACFA"/>
<path d="M132.445 157.409L148.967 167.198C149.445 163.465 149.697 159.435 149.706 155.073L132.458 156.135C132.458 156.56 132.454 156.998 132.445 157.404V157.409Z" fill="#03ACFA"/>
<path d="M132.325 160.587L140.252 179.241L146.724 177.772C147.719 174.587 148.453 171.057 148.949 167.196L132.427 157.406C132.409 158.53 132.369 159.578 132.325 160.587Z" fill="#057EDD"/>
<path d="M132.452 154.758C132.452 155.236 132.443 155.683 132.443 156.139L149.69 155.077L132.376 149.985C132.43 151.463 132.456 153.055 132.456 154.758H132.452Z" fill="#057EDD"/>
<path d="M132.325 160.59C132.277 161.682 132.215 162.731 132.135 163.691C131.923 166.208 131.485 168.831 130.813 171.556C130.751 171.808 130.68 172.043 130.609 172.286L140.248 179.244L132.321 160.59H132.325Z" fill="#87BAD0"/>
<path d="M130.612 172.293C130.082 174.235 129.431 175.903 128.653 177.3L131.077 184.312L140.251 179.251L130.612 172.293Z" fill="#057EDD"/>
<path d="M144.468 183.553C145.322 181.77 146.079 179.855 146.725 177.785L140.253 179.253L144.468 183.553Z" fill="#03ACFA"/>
<path d="M133.423 191.094L134.843 195.208C138.878 192.43 142.076 188.533 144.465 183.543L140.249 179.243L133.423 191.094Z" fill="#057EDD"/>
<path d="M131.072 184.304L133.417 191.094L140.247 179.243L131.072 184.304Z" fill="#03ACFA"/>
<path d="M97.449 113.943C96.3873 114.625 95.392 115.394 94.4365 116.222L98.7495 117.712L97.4446 113.943H97.449Z" fill="#057EDD"/>
<path d="M103.503 131.456L98.7517 117.708L94.4387 116.217C93.6247 116.92 92.8373 117.663 92.103 118.477L103.335 131.757C103.392 131.66 103.445 131.553 103.507 131.46L103.503 131.456Z" fill="#03ACFA"/>
<path d="M92.0567 118.531C87.5933 123.481 84.6073 130.422 83.0768 139.318L103.094 131.904L92.0567 118.531Z" fill="#057EDD"/>
<path d="M103.283 131.835C103.296 131.809 103.314 131.782 103.327 131.76L92.0957 118.48C92.0957 118.48 92.0648 118.516 92.0515 118.534L103.088 131.906L103.283 131.835Z" fill="#C23636"/>
<path d="M100.863 137.961C101.451 135.567 102.234 133.608 103.176 132.02L103.088 131.909L83.0709 139.328C82.9382 140.106 82.8144 140.898 82.6993 141.703L99.8452 143.216C100.088 141.508 100.42 139.757 100.863 137.956V137.961Z" fill="#71AAD8"/>
<path d="M103.191 132.013C103.226 131.956 103.261 131.89 103.297 131.832L103.102 131.903L103.191 132.013Z" fill="#CF5555"/>
<path d="M99.387 161.334C99.2808 159.365 99.2278 157.184 99.2278 154.756C99.2278 154.229 99.2366 153.738 99.241 153.234L82.4225 143.843C82.281 145.143 82.1704 146.488 82.0819 147.864L89.5755 159.449L99.3914 161.334H99.387Z" fill="#87BAD0"/>
<path d="M82.0798 147.866C81.9383 150.091 81.8586 152.405 81.8586 154.82C81.8586 158.094 81.9958 161.181 82.2612 164.101L89.5734 159.452L82.0798 147.866Z" fill="#057EDD"/>
<path d="M100.003 167.43C99.7951 166.16 99.6359 164.917 99.5341 163.701C99.4722 162.958 99.4235 162.166 99.3793 161.343L89.5634 159.458L100.003 167.43Z" fill="#03ACFA"/>
<path d="M90.583 185.628L89.5612 159.458L82.2534 164.108C82.9125 171.433 84.3856 177.662 86.6903 182.771L90.5875 185.628H90.583Z" fill="#87BAD0"/>
<path d="M90.5852 185.628L101.135 172.566C101.043 172.234 100.941 171.915 100.857 171.566C100.512 170.159 100.229 168.783 100.003 167.43L89.5634 159.458L90.5852 185.628Z" fill="#03ACFA"/>
<path d="M114.126 190.093L110.459 183.276C109.747 183.046 109.057 182.781 108.411 182.445C106.314 181.357 104.7 179.95 103.567 178.229C102.581 176.73 101.78 174.823 101.143 172.558L90.5929 185.621L114.131 190.093H114.126Z" fill="#87BAD0"/>
<path d="M122.85 187.418L121.399 183.225C119.74 183.786 117.891 184.083 115.843 184.083C113.795 184.083 112.078 183.804 110.464 183.278L114.131 190.094L122.85 187.418Z" fill="#057EDD"/>
<path d="M124.594 199.531C125.355 199.363 126.107 199.182 126.832 198.969L122.838 187.419L114.119 190.096L124.594 199.531Z" fill="#03ACFA"/>
<path d="M90.6032 185.627L89.2717 187.485C91.0102 190.152 93.0583 192.404 95.4117 194.249L114.141 190.099L90.6032 185.627Z" fill="#03ACFA"/>
<path d="M95.4319 194.264C99.3114 197.299 104.018 199.219 109.561 200.015L112.33 200.307C113.454 200.391 114.599 200.444 115.785 200.444C118.952 200.444 121.885 200.13 124.61 199.533L114.135 190.097C114.135 190.097 104.195 192.318 95.4319 194.269V194.264Z" fill="#87BAD0"/>
<path d="M95.3805 194.246C95.3805 194.246 95.3982 194.26 95.407 194.269C104.17 192.322 114.11 190.097 114.11 190.097L95.3805 194.246Z" fill="#D66363"/>
<path d="M86.6978 182.762C87.4586 184.443 88.3035 186.009 89.2413 187.451C90.0508 186.354 90.5949 185.624 90.5949 185.624L86.6978 182.766V182.762Z" fill="#057EDD"/>
<path d="M89.2419 187.454C89.2419 187.454 89.2551 187.476 89.2595 187.485L90.591 185.627C90.591 185.627 90.0469 186.361 89.2374 187.454H89.2419Z" fill="#CF5555"/>
<path d="M112.323 200.297L109.554 200.005C110.452 200.133 111.381 200.226 112.323 200.297Z" fill="#EB796D"/>
<path d="M99.5316 145.821C99.6023 144.967 99.7085 144.091 99.8324 143.211L82.6865 141.698C82.5892 142.406 82.4875 143.109 82.4078 143.839L99.2219 153.231C99.2485 150.435 99.3458 147.949 99.5227 145.817L99.5316 145.821Z" fill="#03ACFA"/>
<defs>
<filter id="filter0_dddddd_525_218776" x="0.291758" y="0.418344" width="309.416" height="334.471" filterUnits="userSpaceOnUse" color-interpolation-filters="sRGB">
<feFlood flood-opacity="0" result="BackgroundImageFix"/>
<feColorMatrix in="SourceAlpha" type="matrix" values="0 0 0 0 0 0 0 0 0 0 0 0 0 0 0 0 0 0 127 0" result="hardAlpha"/>
<feOffset/>
<feGaussianBlur stdDeviation="0.298533"/>
<feColorMatrix type="matrix" values="0 0 0 0 0.0352941 0 0 0 0 0.494118 0 0 0 0 0.878431 0 0 0 1 0"/>
<feBlend mode="normal" in2="BackgroundImageFix" result="effect1_dropShadow_525_218776"/>
<feColorMatrix in="SourceAlpha" type="matrix" values="0 0 0 0 0 0 0 0 0 0 0 0 0 0 0 0 0 0 127 0" result="hardAlpha"/>
<feOffset/>
<feGaussianBlur stdDeviation="0.597066"/>
<feColorMatrix type="matrix" values="0 0 0 0 0.0352941 0 0 0 0 0.494118 0 0 0 0 0.878431 0 0 0 1 0"/>
<feBlend mode="normal" in2="effect1_dropShadow_525_218776" result="effect2_dropShadow_525_218776"/>
<feColorMatrix in="SourceAlpha" type="matrix" values="0 0 0 0 0 0 0 0 0 0 0 0 0 0 0 0 0 0 127 0" result="hardAlpha"/>
<feOffset/>
<feGaussianBlur stdDeviation="2.08973"/>
<feColorMatrix type="matrix" values="0 0 0 0 0.0352941 0 0 0 0 0.494118 0 0 0 0 0.878431 0 0 0 1 0"/>
<feBlend mode="normal" in2="effect2_dropShadow_525_218776" result="effect3_dropShadow_525_218776"/>
<feColorMatrix in="SourceAlpha" type="matrix" values="0 0 0 0 0 0 0 0 0 0 0 0 0 0 0 0 0 0 127 0" result="hardAlpha"/>
<feOffset/>
<feGaussianBlur stdDeviation="4.17946"/>
<feColorMatrix type="matrix" values="0 0 0 0 0.0352941 0 0 0 0 0.494118 0 0 0 0 0.878431 0 0 0 1 0"/>
<feBlend mode="normal" in2="effect3_dropShadow_525_218776" result="effect4_dropShadow_525_218776"/>
<feColorMatrix in="SourceAlpha" type="matrix" values="0 0 0 0 0 0 0 0 0 0 0 0 0 0 0 0 0 0 127 0" result="hardAlpha"/>
<feOffset/>
<feGaussianBlur stdDeviation="7.16479"/>
<feColorMatrix type="matrix" values="0 0 0 0 0.0352941 0 0 0 0 0.494118 0 0 0 0 0.878431 0 0 0 1 0"/>
<feBlend mode="normal" in2="effect4_dropShadow_525_218776" result="effect5_dropShadow_525_218776"/>
<feColorMatrix in="SourceAlpha" type="matrix" values="0 0 0 0 0 0 0 0 0 0 0 0 0 0 0 0 0 0 127 0" result="hardAlpha"/>
<feOffset/>
<feGaussianBlur stdDeviation="12.5384"/>
<feColorMatrix type="matrix" values="0 0 0 0 0.0352941 0 0 0 0 0.494118 0 0 0 0 0.878431 0 0 0 1 0"/>
<feBlend mode="normal" in2="effect5_dropShadow_525_218776" result="effect6_dropShadow_525_218776"/>
<feBlend mode="normal" in="SourceGraphic" in2="effect6_dropShadow_525_218776" result="shape"/>
</filter>
</defs>
</svg>
