<svg width="310" height="335" viewBox="0 0 310 335" fill="none" xmlns="http://www.w3.org/2000/svg">
<g filter="url(#filter0_dddddd_525_218858)">
<path d="M170.759 31.918C210.85 39.8448 278 78.1865 278 162.94C278 193.809 256.369 254.403 187.222 274.525C169.768 279.175 129.966 284.632 110.393 269.266L43.4124 298.207L60.5451 234.281C46.292 214.083 21.5815 164.403 36.7645 127.269" stroke="white" stroke-width="13.2622"/>
</g>
<path d="M130.808 109.043C126.937 107.583 122.527 106.849 117.568 106.849C113.848 106.849 110.442 107.269 107.332 108.092L111.11 119.022L128.194 124.932L130.804 109.043H130.808Z" fill="#057EDD"/>
<path d="M147.534 133.779L138.245 113.28C136.038 111.493 133.552 110.082 130.791 109.038L128.181 124.928L147.534 133.779Z" fill="#03ACFA"/>
<path d="M149.052 131.442C146.898 123.444 143.297 117.384 138.237 113.292L147.526 133.791L149.052 131.446V131.442Z" fill="#057EDD"/>
<path d="M149.811 134.601C149.581 133.513 149.325 132.465 149.046 131.438L147.52 133.783L149.811 134.601Z" fill="#03ACFA"/>
<path d="M151.457 152.664C151.457 152.602 151.457 152.54 151.457 152.478C151.457 145.785 150.908 139.826 149.811 134.606L147.52 133.788L151.452 152.664H151.457Z" fill="#057EDD"/>
<path d="M111.107 119.018L112.779 123.858C114.257 123.442 115.858 123.203 117.623 123.203C120.476 123.203 122.949 123.751 125.05 124.84C125.847 125.255 126.55 125.724 127.205 126.22L128.191 124.924L111.107 119.014V119.018Z" fill="#03ACFA"/>
<path d="M128.172 124.921L127.186 126.218C128.261 127.031 129.172 127.947 129.875 128.987C131.008 130.668 131.91 132.871 132.583 135.596C132.737 136.233 132.879 136.861 133.012 137.484L147.525 133.769L128.172 124.917V124.921Z" fill="#057EDD"/>
<path d="M133.024 137.487C133.458 139.54 133.754 141.535 133.918 143.464C134.024 144.733 134.104 146.122 134.152 147.626L151.466 152.713C151.466 152.713 151.466 152.669 151.466 152.647L147.534 133.771L133.02 137.487H133.024Z" fill="#03ACFA"/>
<path d="M134.221 155.06L150.744 164.85C151.221 161.116 151.473 157.086 151.482 152.725L134.235 153.786C134.235 154.211 134.23 154.649 134.221 155.056V155.06Z" fill="#03ACFA"/>
<path d="M134.101 158.239L142.028 176.893L148.5 175.425C149.495 172.24 150.23 168.71 150.725 164.848L134.203 155.059C134.185 156.182 134.145 157.231 134.101 158.239Z" fill="#057EDD"/>
<path d="M134.228 152.411C134.228 152.889 134.219 153.335 134.219 153.791L151.467 152.729L134.153 147.638C134.206 149.115 134.232 150.708 134.232 152.411H134.228Z" fill="#057EDD"/>
<path d="M134.102 158.242C134.053 159.335 133.991 160.383 133.912 161.343C133.699 163.86 133.261 166.483 132.589 169.208C132.527 169.46 132.456 169.695 132.385 169.938L142.024 176.896L134.097 158.242H134.102Z" fill="#87BAD0"/>
<path d="M132.389 169.944C131.858 171.886 131.208 173.554 130.429 174.952L132.853 181.963L142.028 176.903L132.389 169.944Z" fill="#057EDD"/>
<path d="M146.245 181.204C147.098 179.421 147.855 177.506 148.501 175.436L142.029 176.904L146.245 181.204Z" fill="#03ACFA"/>
<path d="M135.199 188.745L136.619 192.859C140.654 190.081 143.852 186.184 146.241 181.194L142.025 176.895L135.199 188.745Z" fill="#057EDD"/>
<path d="M132.849 181.955L135.193 188.745L142.023 176.895L132.849 181.955Z" fill="#03ACFA"/>
<path d="M99.2251 111.595C98.1635 112.276 97.1681 113.046 96.2126 113.873L100.526 115.364L99.2207 111.595H99.2251Z" fill="#057EDD"/>
<path d="M105.279 129.106L100.528 115.358L96.2147 113.867C95.4007 114.571 94.6133 115.314 93.879 116.128L105.111 129.407C105.168 129.31 105.221 129.204 105.283 129.111L105.279 129.106Z" fill="#03ACFA"/>
<path d="M93.8328 116.184C89.3694 121.134 86.3835 128.074 84.8529 136.97L104.87 129.556L93.8328 116.184Z" fill="#057EDD"/>
<path d="M105.059 129.486C105.073 129.459 105.09 129.433 105.103 129.41L93.872 116.131C93.872 116.131 93.841 116.166 93.8278 116.184L104.865 129.556L105.059 129.486Z" fill="#C23636"/>
<path d="M102.639 135.611C103.227 133.218 104.01 131.258 104.952 129.67L104.864 129.56L84.847 136.978C84.7143 137.756 84.5905 138.548 84.4755 139.353L101.621 140.866C101.865 139.159 102.196 137.407 102.639 135.607V135.611Z" fill="#71AAD8"/>
<path d="M104.967 129.662C105.002 129.605 105.037 129.539 105.072 129.481L104.878 129.552L104.967 129.662Z" fill="#CF5555"/>
<path d="M101.163 158.984C101.057 157.016 101.004 154.835 101.004 152.406C101.004 151.88 101.013 151.389 101.017 150.884L84.1985 141.493C84.057 142.794 83.9464 144.138 83.8579 145.514L91.3515 157.1L101.167 158.984H101.163Z" fill="#87BAD0"/>
<path d="M83.8559 145.518C83.7144 147.743 83.6348 150.056 83.6348 152.471C83.6348 155.745 83.7719 158.833 84.0373 161.752L91.3495 157.103L83.8559 145.518Z" fill="#057EDD"/>
<path d="M101.779 165.08C101.571 163.81 101.412 162.567 101.31 161.351C101.248 160.607 101.2 159.816 101.155 158.993L91.3395 157.108L101.779 165.08Z" fill="#03ACFA"/>
<path d="M92.3592 183.278L91.3373 157.108L84.0295 161.758C84.6887 169.083 86.1617 175.311 88.4664 180.421L92.3636 183.278H92.3592Z" fill="#87BAD0"/>
<path d="M92.3613 183.278L102.912 170.216C102.819 169.884 102.717 169.565 102.633 169.216C102.288 167.809 102.005 166.433 101.779 165.08L91.3395 157.108L92.3613 183.278Z" fill="#03ACFA"/>
<path d="M115.903 187.747L112.235 180.93C111.523 180.7 110.833 180.435 110.187 180.099C108.09 179.01 106.476 177.604 105.343 175.883C104.357 174.383 103.556 172.477 102.919 170.212L92.369 183.275L115.907 187.747H115.903Z" fill="#87BAD0"/>
<path d="M124.626 185.068L123.175 180.874C121.516 181.436 119.667 181.732 117.619 181.732C115.571 181.732 113.854 181.454 112.24 180.927L115.907 187.744L124.626 185.068Z" fill="#057EDD"/>
<path d="M126.37 197.183C127.131 197.015 127.883 196.834 128.608 196.621L124.614 185.071L115.895 187.748L126.37 197.183Z" fill="#03ACFA"/>
<path d="M92.3794 183.276L91.0479 185.134C92.7863 187.802 94.8344 190.053 97.1878 191.898L115.917 187.749L92.3794 183.276Z" fill="#03ACFA"/>
<path d="M97.208 191.915C101.087 194.949 105.794 196.869 111.337 197.665L114.106 197.957C115.23 198.041 116.375 198.094 117.561 198.094C120.728 198.094 123.661 197.78 126.386 197.183L115.911 187.748C115.911 187.748 105.971 189.968 97.208 191.919V191.915Z" fill="#87BAD0"/>
<path d="M97.1566 191.897C97.1566 191.897 97.1743 191.91 97.1832 191.919C105.946 189.973 115.886 187.748 115.886 187.748L97.1566 191.897Z" fill="#D66363"/>
<path d="M88.4738 180.411C89.2346 182.092 90.0795 183.658 91.0173 185.1C91.8268 184.003 92.3709 183.273 92.3709 183.273L88.4738 180.416V180.411Z" fill="#057EDD"/>
<path d="M91.0177 185.103C91.0177 185.103 91.031 185.125 91.0354 185.134L92.3669 183.276C92.3669 183.276 91.8228 184.011 91.0133 185.103H91.0177Z" fill="#CF5555"/>
<path d="M114.1 197.95L111.33 197.658C112.228 197.786 113.157 197.879 114.1 197.95Z" fill="#EB796D"/>
<path d="M101.308 143.471C101.378 142.618 101.485 141.742 101.608 140.862L84.4625 139.349C84.3652 140.056 84.2635 140.76 84.1838 141.49L100.998 150.881C101.024 148.085 101.122 145.599 101.299 143.467L101.308 143.471Z" fill="#03ACFA"/>
<path d="M169.041 169.499C169.087 171.256 169.251 172.921 169.515 174.507L178.654 169.499H169.041Z" fill="#03ACFA"/>
<path d="M181.827 169.494H178.661L169.521 174.502C169.698 175.547 169.92 176.557 170.188 177.526L181.823 179.388V169.49L181.827 169.494Z" fill="#057EDD"/>
<path d="M172.902 183.81C174.223 185.94 175.876 187.815 177.876 189.421C178.979 190.306 180.166 191.078 181.395 191.787L172.902 183.81Z" fill="#057EDD"/>
<path d="M181.825 192.048V179.391L170.191 177.528C170.828 179.831 171.734 181.924 172.904 183.811L181.398 191.788C181.544 191.872 181.683 191.969 181.83 192.048H181.825Z" fill="#03ACFA"/>
<path d="M181.828 111.164C180.721 111.827 179.647 112.54 178.653 113.353C175.856 115.648 173.771 118.428 172.387 121.691L181.828 125.416V111.164Z" fill="#057EDD"/>
<path d="M181.829 125.408L172.388 121.684C171.155 124.59 170.476 127.87 170.363 131.544H179.405L181.829 130.999V125.408Z" fill="#59A3DE"/>
<path d="M179.388 131.546H181.813V131.001L179.388 131.546Z" fill="#057EDD"/>
<path d="M211.94 108.883C208.329 107.541 204.169 106.849 199.413 106.849C196.078 106.849 193.004 107.188 190.164 107.847V124.271C192.073 122.208 194.891 121.167 198.637 121.167C198.775 121.167 198.901 121.176 199.039 121.18L201.191 119.133L211.945 108.887L211.94 108.883Z" fill="#03ACFA"/>
<path d="M220.738 127.592L222.005 115.983C221.254 115.069 220.445 114.184 219.514 113.357C217.358 111.432 214.82 109.96 211.935 108.891L201.181 119.137L220.734 127.592H220.738Z" fill="#057EDD"/>
<path d="M226.695 127.586C226.317 123.165 224.74 119.298 222.01 115.977L220.743 127.586H226.699H226.695Z" fill="#59A3DE"/>
<path d="M199.036 121.182C200.034 121.198 200.966 121.286 201.842 121.442L201.188 119.135L199.036 121.182Z" fill="#057EDD"/>
<path d="M201.181 119.135L201.835 121.442C204.134 121.844 206.013 122.7 207.46 124.034C209.527 125.942 210.563 128.53 210.563 131.788C210.563 133.974 210.077 135.832 209.133 137.383L220.734 127.59L201.181 119.135Z" fill="#59A3DE"/>
<path d="M222.858 142.584C224.267 140.726 225.286 138.629 225.936 136.301L220.74 127.586L209.139 137.379C208.682 138.13 208.12 138.814 207.444 139.422L222.019 143.633C222.304 143.293 222.585 142.949 222.862 142.584H222.858Z" fill="#2BBEFD"/>
<path d="M225.94 136.301C226.502 134.292 226.799 132.116 226.799 129.759C226.799 129.02 226.757 128.299 226.699 127.586H220.743L225.94 136.301Z" fill="#057EDD"/>
<path d="M192.291 143.124H190.164V147.243L192.865 148.815L192.291 143.124Z" fill="#2BBEFD"/>
<path d="M190.164 147.241V149.271L192.865 148.814L190.164 147.241Z" fill="#057EDD"/>
<path d="M190.164 149.27V156.844H192.865V148.812L190.164 149.27Z" fill="#03ACFA"/>
<path d="M214.022 149.924V149.446C215.427 148.968 216.765 148.255 218.053 147.345L192.859 148.817L200.857 157.406C203.726 157.901 206.041 158.723 207.76 159.889C208.654 160.498 209.396 161.215 210.021 162.02L221.408 154.005C219.387 152.281 216.929 150.918 214.022 149.924Z" fill="#2BBEFD"/>
<path d="M192.859 156.844H193.618C196.348 156.844 198.747 157.037 200.857 157.402L192.859 148.812V156.844Z" fill="#057EDD"/>
<path d="M218.061 147.349C219.45 146.363 220.771 145.13 222.021 143.637L207.446 139.426C204.678 141.892 200.077 143.129 193.626 143.129H192.293L192.871 148.821L218.066 147.349H218.061Z" fill="#057EDD"/>
<path d="M226.787 161.853C225.659 158.762 223.914 156.179 221.536 154.115L210.224 162.302C211.327 163.837 211.982 165.704 212.162 167.914L222.463 174.507L226.783 161.858L226.787 161.853Z" fill="#03ACFA"/>
<path d="M221.405 154.004L210.018 162.019C210.089 162.111 210.161 162.203 210.232 162.3L221.544 154.113C221.497 154.075 221.451 154.042 221.405 154.004Z" fill="#057EDD"/>
<path d="M222.475 174.504L212.174 167.911C212.211 168.347 212.237 168.792 212.237 169.257C212.237 173.473 211.142 176.715 208.957 178.984C208.428 179.533 207.833 180.011 207.187 180.426L207.363 185.799L222.479 174.504H222.475Z" fill="#057EDD"/>
<path d="M227.882 176.713C228.188 175.069 228.344 173.341 228.344 171.525C228.344 167.876 227.819 164.659 226.796 161.854L222.476 174.503L227.882 176.709V176.713Z" fill="#2BBEFD"/>
<path d="M190.852 180.83L190.164 180.721V195.207C190.835 195.362 191.528 195.492 192.224 195.61L190.856 180.83H190.852Z" fill="#2BBEFD"/>
<path d="M207.359 185.795L219.413 190.455C219.849 190.115 220.298 189.788 220.709 189.419C222.701 187.644 224.295 185.648 225.507 183.438L222.474 174.5L207.359 185.795Z" fill="#03ACFA"/>
<path d="M225.508 183.438C226.637 181.383 227.429 179.139 227.882 176.706L222.476 174.5L225.508 183.438Z" fill="#2BBEFD"/>
<path d="M207.359 185.801L207.183 180.429C205.153 181.729 202.544 182.383 199.348 182.383C196.328 182.383 193.757 181.767 191.618 180.563L190.851 180.836L207.359 185.801Z" fill="#03ACFA"/>
<path d="M190.855 180.827L192.222 195.608C194.173 195.939 196.232 196.123 198.379 196.182L207.359 185.789L190.851 180.823L190.855 180.827Z" fill="#057EDD"/>
<path d="M198.384 196.193C198.828 196.205 199.265 196.226 199.713 196.226C203.362 196.226 206.671 195.824 209.679 195.065L207.363 185.8L198.384 196.193Z" fill="#03ACFA"/>
<path d="M209.674 195.065C213.415 194.121 216.661 192.582 219.413 190.459L207.359 185.8L209.674 195.065Z" fill="#057EDD"/>
<defs>
<filter id="filter0_dddddd_525_218858" x="0.291759" y="0.336315" width="309.416" height="334.471" filterUnits="userSpaceOnUse" color-interpolation-filters="sRGB">
<feFlood flood-opacity="0" result="BackgroundImageFix"/>
<feColorMatrix in="SourceAlpha" type="matrix" values="0 0 0 0 0 0 0 0 0 0 0 0 0 0 0 0 0 0 127 0" result="hardAlpha"/>
<feOffset/>
<feGaussianBlur stdDeviation="0.298533"/>
<feColorMatrix type="matrix" values="0 0 0 0 0.0352941 0 0 0 0 0.494118 0 0 0 0 0.878431 0 0 0 1 0"/>
<feBlend mode="normal" in2="BackgroundImageFix" result="effect1_dropShadow_525_218858"/>
<feColorMatrix in="SourceAlpha" type="matrix" values="0 0 0 0 0 0 0 0 0 0 0 0 0 0 0 0 0 0 127 0" result="hardAlpha"/>
<feOffset/>
<feGaussianBlur stdDeviation="0.597066"/>
<feColorMatrix type="matrix" values="0 0 0 0 0.0352941 0 0 0 0 0.494118 0 0 0 0 0.878431 0 0 0 1 0"/>
<feBlend mode="normal" in2="effect1_dropShadow_525_218858" result="effect2_dropShadow_525_218858"/>
<feColorMatrix in="SourceAlpha" type="matrix" values="0 0 0 0 0 0 0 0 0 0 0 0 0 0 0 0 0 0 127 0" result="hardAlpha"/>
<feOffset/>
<feGaussianBlur stdDeviation="2.08973"/>
<feColorMatrix type="matrix" values="0 0 0 0 0.0352941 0 0 0 0 0.494118 0 0 0 0 0.878431 0 0 0 1 0"/>
<feBlend mode="normal" in2="effect2_dropShadow_525_218858" result="effect3_dropShadow_525_218858"/>
<feColorMatrix in="SourceAlpha" type="matrix" values="0 0 0 0 0 0 0 0 0 0 0 0 0 0 0 0 0 0 127 0" result="hardAlpha"/>
<feOffset/>
<feGaussianBlur stdDeviation="4.17946"/>
<feColorMatrix type="matrix" values="0 0 0 0 0.0352941 0 0 0 0 0.494118 0 0 0 0 0.878431 0 0 0 1 0"/>
<feBlend mode="normal" in2="effect3_dropShadow_525_218858" result="effect4_dropShadow_525_218858"/>
<feColorMatrix in="SourceAlpha" type="matrix" values="0 0 0 0 0 0 0 0 0 0 0 0 0 0 0 0 0 0 127 0" result="hardAlpha"/>
<feOffset/>
<feGaussianBlur stdDeviation="7.16479"/>
<feColorMatrix type="matrix" values="0 0 0 0 0.0352941 0 0 0 0 0.494118 0 0 0 0 0.878431 0 0 0 1 0"/>
<feBlend mode="normal" in2="effect4_dropShadow_525_218858" result="effect5_dropShadow_525_218858"/>
<feColorMatrix in="SourceAlpha" type="matrix" values="0 0 0 0 0 0 0 0 0 0 0 0 0 0 0 0 0 0 127 0" result="hardAlpha"/>
<feOffset/>
<feGaussianBlur stdDeviation="12.5384"/>
<feColorMatrix type="matrix" values="0 0 0 0 0.0352941 0 0 0 0 0.494118 0 0 0 0 0.878431 0 0 0 1 0"/>
<feBlend mode="normal" in2="effect5_dropShadow_525_218858" result="effect6_dropShadow_525_218858"/>
<feBlend mode="normal" in="SourceGraphic" in2="effect6_dropShadow_525_218858" result="shape"/>
</filter>
</defs>
</svg>
