<svg width="624" height="952" viewBox="0 0 624 952" fill="none" xmlns="http://www.w3.org/2000/svg">
<g opacity="0.35">
<path d="M78.3887 469.751C9.50419 616.886 -207.462 621.69 -307.334 605.7C-634.833 559.343 -378.318 52.3681 -122.729 131.573C132.859 210.778 -121.816 -289.89 33.8875 -234.438C189.591 -178.985 346.148 108.051 339.959 252.286C333.77 396.521 164.494 285.832 78.3887 469.751Z" stroke="url(#paint0_linear_462_242154)" stroke-width="1.72772"/>
<path d="M-168.091 276.492C-204.437 353.963 -318.767 356.562 -371.389 348.178C-543.947 323.883 -408.614 56.9378 -273.959 98.5468C-139.305 140.156 -273.341 -123.303 -191.313 -94.1647C-109.284 -65.0259 -26.8802 86.0131 -30.1882 161.938C-33.4962 237.862 -122.659 179.653 -168.091 276.492Z" stroke="url(#paint1_linear_462_242154)" stroke-width="1.72772"/>
<path d="M66.4809 460.579C-0.740523 604.38 -212.668 608.981 -310.229 593.307C-630.146 547.848 -379.807 52.3699 -130.116 129.908C119.574 207.445 -129.408 -282.091 22.7055 -227.815C174.819 -173.54 327.867 107.118 321.885 248.111C315.903 389.105 150.508 280.828 66.4809 460.579Z" stroke="url(#paint2_linear_462_242154)" stroke-width="1.72772"/>
<path d="M54.6696 451.408C-11.0741 591.867 -218.178 596.438 -313.511 581.167C-626.126 536.89 -381.305 52.9184 -137.329 128.549C106.647 204.18 -136.485 -273.805 12.1446 -220.856C160.774 -167.907 310.234 106.124 304.336 243.819C298.438 381.514 136.849 275.833 54.6696 451.408Z" stroke="url(#paint3_linear_462_242154)" stroke-width="1.72772"/>
<path d="M43.0635 442.098C-21.0923 579.258 -223.279 583.682 -316.353 568.75C-621.555 525.449 -382.639 52.8505 -144.44 126.758C93.7592 200.666 -143.694 -266.179 1.41783 -214.441C146.53 -162.702 292.495 104.945 286.763 239.417C281.032 373.888 123.258 270.649 43.0635 442.098Z" stroke="url(#paint4_linear_462_242154)" stroke-width="1.72772"/>
<path d="M31.2523 432.927C-31.4258 566.745 -228.788 571.139 -319.635 556.609C-617.536 514.491 -384.138 53.3988 -151.653 125.4C80.8322 197.401 -150.771 -257.894 -9.14308 -207.482C132.485 -157.07 274.862 103.951 269.215 235.124C263.568 366.298 109.6 265.654 31.2523 432.927Z" stroke="url(#paint5_linear_462_242154)" stroke-width="1.72772"/>
<path d="M19.6458 423.617C-41.4446 554.135 -233.89 558.383 -322.476 544.192C-612.965 503.049 -385.473 53.33 -158.764 123.608C67.944 193.887 -157.981 -250.269 -19.8703 -201.068C118.24 -151.866 257.122 102.771 251.641 230.721C246.161 358.67 96.0086 260.469 19.6458 423.617Z" stroke="url(#paint6_linear_462_242154)" stroke-width="1.72772"/>
<path d="M7.83447 414.445C-51.7781 541.622 -239.399 545.84 -325.758 532.051C-608.946 492.09 -386.971 53.8784 -165.977 122.25C55.017 190.621 -165.058 -241.984 -30.4312 -194.109C104.195 -146.234 239.489 101.777 234.093 226.429C228.696 351.08 82.3502 255.474 7.83447 414.445Z" stroke="url(#paint7_linear_462_242154)" stroke-width="1.72772"/>
<path d="M-3.77157 405.135C-61.7963 529.012 -244.501 533.083 -328.599 519.634C-604.375 480.648 -388.305 53.8096 -173.088 120.458C42.1292 187.107 -172.267 -234.359 -41.158 -187.694C89.9506 -141.03 221.749 100.597 216.52 222.025C211.29 343.453 68.7594 250.289 -3.77157 405.135Z" stroke="url(#paint8_linear_462_242154)" stroke-width="1.72772"/>
<path d="M-15.6787 396.554C-72.081 517.207 -249.896 521.069 -331.754 507.918C-600.176 469.779 -390.129 54.0577 -180.629 119.112C28.87 184.167 -180.032 -226.565 -52.4036 -181.028C75.2252 -135.49 203.637 99.9884 198.617 218.286C193.596 336.583 54.8241 245.737 -15.6787 396.554Z" stroke="url(#paint9_linear_462_242154)" stroke-width="1.72772"/>
<path d="M-27.2683 387.28C-82.1175 504.557 -254.987 508.334 -334.566 495.562C-595.517 458.528 -391.258 54.4366 -187.595 117.64C16.0691 180.843 -186.969 -218.345 -62.8962 -174.101C61.1766 -129.857 185.986 99.0017 181.09 213.982C176.193 328.963 41.2931 240.683 -27.2683 387.28Z" stroke="url(#paint10_linear_462_242154)" stroke-width="1.72772"/>
<path d="M-39.0965 378.072C-92.4332 492.084 -260.507 495.769 -337.878 483.36C-591.586 447.379 -392.962 54.5372 -194.953 115.962C3.05479 177.387 -194.319 -210.655 -73.6917 -167.655C46.9354 -124.654 168.264 97.8144 163.494 209.59C158.725 321.365 27.5744 235.557 -39.0965 378.072Z" stroke="url(#paint11_linear_462_242154)" stroke-width="1.72772"/>
<path d="M-50.6861 368.798C-102.47 479.434 -265.599 483.034 -340.69 471.004C-586.927 436.128 -394.091 54.9161 -201.919 114.489C-9.74618 174.063 -201.256 -202.435 -84.1844 -160.728C32.8868 -119.021 150.613 96.8278 145.968 205.287C141.322 313.746 14.0434 230.503 -50.6861 368.798Z" stroke="url(#paint12_linear_462_242154)" stroke-width="1.72772"/>
<path d="M-62.5128 359.59C-112.784 466.961 -271.117 470.469 -344 458.802C-582.994 424.978 -395.793 55.0168 -209.276 112.812C-22.759 170.607 -208.604 -194.745 -94.9784 -154.281C18.647 -113.817 132.892 95.6405 128.374 200.894C123.855 306.148 0.326103 225.377 -62.5128 359.59Z" stroke="url(#paint13_linear_462_242154)" stroke-width="1.72772"/>
<path d="M-74.1189 350.281C-122.802 454.352 -276.218 457.713 -346.841 446.385C-578.423 413.537 -397.127 54.9489 -216.387 111.021C-35.6467 167.094 -215.813 -187.119 -105.705 -147.866C4.40239 -108.613 115.153 94.4614 110.801 196.491C106.449 298.522 -13.2647 220.192 -74.1189 350.281Z" stroke="url(#paint14_linear_462_242154)" stroke-width="1.72772"/>
<path d="M-85.9302 341.108C-133.136 441.838 -281.728 445.169 -350.123 434.244C-574.404 402.578 -398.626 55.4963 -223.6 109.662C-48.5737 163.827 -222.89 -178.835 -116.266 -140.908C-9.64229 -102.981 97.5197 93.4665 93.2523 192.198C88.9848 290.93 -26.9231 215.196 -85.9302 341.108Z" stroke="url(#paint15_linear_462_242154)" stroke-width="1.72772"/>
<path d="M-97.5362 331.799C-143.154 429.229 -286.829 432.413 -352.964 421.827C-569.832 391.137 -399.96 55.4285 -230.711 107.871C-61.4615 160.314 -230.099 -171.209 -126.993 -134.493C-23.8869 -97.7761 79.7803 92.2874 75.6795 187.796C71.5787 283.304 -40.5139 210.012 -97.5362 331.799Z" stroke="url(#paint16_linear_462_242154)" stroke-width="1.72772"/>
<path d="M-109.65 322.765C-153.715 416.818 -292.444 419.918 -356.301 409.711C-565.698 380.125 -401.614 56.0466 -238.2 106.638C-74.7868 157.229 -237.56 -162.749 -138.01 -127.327C-38.4599 -91.9037 61.6048 91.5401 57.6282 183.732C53.6516 275.923 -54.5693 205.197 -109.65 322.765Z" stroke="url(#paint17_linear_462_242154)" stroke-width="1.72772"/>
<path d="M-121.256 313.455C-163.733 404.209 -297.546 407.161 -359.142 397.293C-561.127 368.683 -402.948 55.9778 -245.311 104.846C-87.6746 153.715 -244.769 -155.125 -148.737 -120.912C-52.7046 -86.6997 43.8653 90.36 40.0554 179.328C36.2455 268.296 -68.1601 200.012 -121.256 313.455Z" stroke="url(#paint18_linear_462_242154)" stroke-width="1.72772"/>
<path d="M-133.068 304.284C-174.067 391.696 -303.056 394.619 -362.425 385.154C-557.108 357.725 -404.447 56.5271 -252.525 103.489C-100.602 150.45 -251.846 -146.838 -159.298 -113.952C-66.7498 -81.0664 26.2317 89.3671 22.5061 175.037C18.7805 260.707 -81.819 195.018 -133.068 304.284Z" stroke="url(#paint19_linear_462_242154)" stroke-width="1.72772"/>
<path d="M-144.674 294.974C-184.085 379.086 -308.157 381.862 -365.266 372.736C-552.537 346.283 -405.781 56.4582 -259.636 101.697C-113.49 146.936 -259.055 -139.214 -170.025 -107.538C-80.9944 -75.8624 8.4923 88.187 4.93336 170.633C1.37441 253.08 -95.4098 189.833 -144.674 294.974Z" stroke="url(#paint20_linear_462_242154)" stroke-width="1.72772"/>
<path d="M-156.502 285.766C-194.401 366.613 -313.676 369.297 -368.577 360.533C-548.605 335.134 -407.484 56.5589 -266.994 100.02C-126.504 143.48 -266.405 -131.524 -180.82 -101.092C-95.2351 -70.6592 -9.22915 86.9997 -12.6613 166.241C-16.0935 245.482 -109.128 184.707 -156.502 285.766Z" stroke="url(#paint21_linear_462_242154)" stroke-width="1.72772"/>
</g>
<defs>
<linearGradient id="paint0_linear_462_242154" x1="168.755" y1="-209.165" x2="358.668" y2="527.145" gradientUnits="userSpaceOnUse">
<stop stop-color="#9FDBFF"/>
<stop offset="1" stop-color="#39ACF1"/>
</linearGradient>
<linearGradient id="paint1_linear_462_242154" x1="-120.253" y1="-80.9057" x2="-20.2011" y2="306.556" gradientUnits="userSpaceOnUse">
<stop stop-color="#9FDBFF"/>
<stop offset="1" stop-color="#39ACF1"/>
</linearGradient>
<linearGradient id="paint2_linear_462_242154" x1="154.454" y1="-203.052" x2="339.986" y2="516.882" gradientUnits="userSpaceOnUse">
<stop stop-color="#9FDBFF"/>
<stop offset="1" stop-color="#39ACF1"/>
</linearGradient>
<linearGradient id="paint3_linear_462_242154" x1="140.884" y1="-196.721" x2="322.168" y2="506.229" gradientUnits="userSpaceOnUse">
<stop stop-color="#9FDBFF"/>
<stop offset="1" stop-color="#39ACF1"/>
</linearGradient>
<linearGradient id="paint4_linear_462_242154" x1="127.106" y1="-190.846" x2="304.099" y2="495.721" gradientUnits="userSpaceOnUse">
<stop stop-color="#9FDBFF"/>
<stop offset="1" stop-color="#39ACF1"/>
</linearGradient>
<linearGradient id="paint5_linear_462_242154" x1="113.536" y1="-184.515" x2="286.281" y2="485.068" gradientUnits="userSpaceOnUse">
<stop stop-color="#9FDBFF"/>
<stop offset="1" stop-color="#39ACF1"/>
</linearGradient>
<linearGradient id="paint6_linear_462_242154" x1="99.7571" y1="-178.64" x2="268.211" y2="474.559" gradientUnits="userSpaceOnUse">
<stop stop-color="#9FDBFF"/>
<stop offset="1" stop-color="#39ACF1"/>
</linearGradient>
<linearGradient id="paint7_linear_462_242154" x1="86.187" y1="-172.31" x2="250.393" y2="463.906" gradientUnits="userSpaceOnUse">
<stop stop-color="#9FDBFF"/>
<stop offset="1" stop-color="#39ACF1"/>
</linearGradient>
<linearGradient id="paint8_linear_462_242154" x1="72.4089" y1="-166.435" x2="232.324" y2="453.396" gradientUnits="userSpaceOnUse">
<stop stop-color="#9FDBFF"/>
<stop offset="1" stop-color="#39ACF1"/>
</linearGradient>
<linearGradient id="paint9_linear_462_242154" x1="58.1382" y1="-160.251" x2="213.807" y2="443.79" gradientUnits="userSpaceOnUse">
<stop stop-color="#9FDBFF"/>
<stop offset="1" stop-color="#39ACF1"/>
</linearGradient>
<linearGradient id="paint10_linear_462_242154" x1="44.5681" y1="-153.922" x2="195.9" y2="433.143" gradientUnits="userSpaceOnUse">
<stop stop-color="#9FDBFF"/>
<stop offset="1" stop-color="#39ACF1"/>
</linearGradient>
<linearGradient id="paint11_linear_462_242154" x1="30.7895" y1="-148.046" x2="177.919" y2="422.628" gradientUnits="userSpaceOnUse">
<stop stop-color="#9FDBFF"/>
<stop offset="1" stop-color="#39ACF1"/>
</linearGradient>
<linearGradient id="paint12_linear_462_242154" x1="17.2195" y1="-141.717" x2="160.012" y2="411.981" gradientUnits="userSpaceOnUse">
<stop stop-color="#9FDBFF"/>
<stop offset="1" stop-color="#39ACF1"/>
</linearGradient>
<linearGradient id="paint13_linear_462_242154" x1="3.44239" y1="-135.841" x2="142.032" y2="401.466" gradientUnits="userSpaceOnUse">
<stop stop-color="#9FDBFF"/>
<stop offset="1" stop-color="#39ACF1"/>
</linearGradient>
<linearGradient id="paint14_linear_462_242154" x1="-10.3357" y1="-129.966" x2="123.963" y2="390.958" gradientUnits="userSpaceOnUse">
<stop stop-color="#9FDBFF"/>
<stop offset="1" stop-color="#39ACF1"/>
</linearGradient>
<linearGradient id="paint15_linear_462_242154" x1="-23.9057" y1="-123.636" x2="106.145" y2="380.304" gradientUnits="userSpaceOnUse">
<stop stop-color="#9FDBFF"/>
<stop offset="1" stop-color="#39ACF1"/>
</linearGradient>
<linearGradient id="paint16_linear_462_242154" x1="-37.6838" y1="-117.761" x2="88.0753" y2="369.796" gradientUnits="userSpaceOnUse">
<stop stop-color="#9FDBFF"/>
<stop offset="1" stop-color="#39ACF1"/>
</linearGradient>
<linearGradient id="paint17_linear_462_242154" x1="-51.7783" y1="-111.191" x2="69.644" y2="359.388" gradientUnits="userSpaceOnUse">
<stop stop-color="#9FDBFF"/>
<stop offset="1" stop-color="#39ACF1"/>
</linearGradient>
<linearGradient id="paint18_linear_462_242154" x1="-65.5564" y1="-105.317" x2="51.5746" y2="348.879" gradientUnits="userSpaceOnUse">
<stop stop-color="#9FDBFF"/>
<stop offset="1" stop-color="#39ACF1"/>
</linearGradient>
<linearGradient id="paint19_linear_462_242154" x1="-79.1269" y1="-98.9853" x2="33.7559" y2="338.227" gradientUnits="userSpaceOnUse">
<stop stop-color="#9FDBFF"/>
<stop offset="1" stop-color="#39ACF1"/>
</linearGradient>
<linearGradient id="paint20_linear_462_242154" x1="-92.905" y1="-93.1109" x2="15.6865" y2="327.718" gradientUnits="userSpaceOnUse">
<stop stop-color="#9FDBFF"/>
<stop offset="1" stop-color="#39ACF1"/>
</linearGradient>
<linearGradient id="paint21_linear_462_242154" x1="-106.683" y1="-87.2355" x2="-2.29413" y2="317.203" gradientUnits="userSpaceOnUse">
<stop stop-color="#9FDBFF"/>
<stop offset="1" stop-color="#39ACF1"/>
</linearGradient>
</defs>
</svg>
