<svg width="84" height="84" viewBox="0 0 84 84" fill="none" xmlns="http://www.w3.org/2000/svg">
<path d="M41.9689 0C41.1127 0 40.2915 0.34013 39.6861 0.945566C39.0807 1.551 38.7405 2.37215 38.7405 3.22837C38.7405 4.08458 39.0807 4.90573 39.6861 5.51117C40.2915 6.1166 41.1127 6.45673 41.9689 6.45673C51.3873 6.45673 60.4199 10.1982 67.0797 16.858C73.7395 23.5178 77.4809 32.5504 77.4809 41.9688C77.4809 51.3871 73.7395 60.4198 67.0797 67.0796C60.4199 73.7394 51.3873 77.4808 41.9689 77.4808C40.8368 77.4808 39.7176 77.4162 38.6114 77.3086C38.2886 77.2785 37.97 77.2311 37.6472 77.1881C36.8509 77.0934 36.0588 76.9772 35.2797 76.8265C34.9354 76.7619 34.5953 76.6888 34.2595 76.6113C33.4933 76.4434 32.7358 76.2454 31.9911 76.0302C31.6769 75.9355 31.3626 75.8451 31.0527 75.7461C23.9253 73.4167 17.7146 68.8976 13.3053 62.8326C13.004 62.4022 12.6855 62.0105 12.4014 61.5843C12.0312 61.029 11.6997 60.4479 11.3597 59.8625C11.0756 59.3761 10.7872 58.894 10.5246 58.3947C10.219 57.8093 9.93488 57.2067 9.6637 56.604C9.42265 56.0832 9.19451 55.5623 8.98789 55.0329C7.21 50.5884 6.35244 45.8293 6.46712 41.0438C6.5818 36.2582 7.66634 31.5457 9.65509 27.1915C9.86267 26.8021 9.98825 26.3744 10.0241 25.9346C10.0599 25.4948 10.0051 25.0524 9.86329 24.6346C9.72142 24.2168 9.49543 23.8325 9.19925 23.5055C8.90307 23.1784 8.543 22.9156 8.14127 22.7331C7.73954 22.5507 7.30467 22.4525 6.86352 22.4447C6.42237 22.4369 5.9843 22.5196 5.57635 22.6877C5.16841 22.8558 4.79926 23.1058 4.49168 23.4221C4.18411 23.7384 3.94464 24.1145 3.78807 24.527C1.27794 29.9982 -0.0144702 35.9492 0.000122206 41.9688V42.6532C0.000122206 42.7134 0.0345584 42.7694 0.0388629 42.8297C0.130478 47.3223 0.948876 51.7704 2.46229 56.0014C2.47143 56.1099 2.48724 56.2177 2.50964 56.3242C2.64738 56.703 2.83678 57.0603 2.98744 57.4348C3.2371 58.0719 3.51258 58.696 3.79668 59.3202C4.11521 60.0132 4.43375 60.7019 4.79102 61.382C5.14829 62.0621 5.46682 62.5959 5.82409 63.1985C6.18137 63.8011 6.59029 64.5157 7.01213 65.1527C7.3608 65.6779 7.7482 66.1729 8.11839 66.6765C9.44045 68.5283 10.9118 70.2688 12.5176 71.8807C12.5778 71.9409 12.6596 71.9581 12.7242 72.0141C17.0715 76.2342 22.2798 79.4646 27.9922 81.484C28.0701 81.534 28.1506 81.58 28.2333 81.6217C28.4958 81.7164 28.7713 81.7767 29.0382 81.8671C29.4256 81.9919 29.8173 82.1038 30.209 82.22C31.0699 82.4697 31.9394 82.6935 32.8175 82.8915C33.248 82.9819 33.6784 83.0766 34.0788 83.1584C34.9913 83.3306 35.9125 83.464 36.8336 83.5889C37.221 83.6405 37.6084 83.7008 38.0001 83.7352C39.2915 83.86 40.6345 83.9375 41.9646 83.9375C53.0954 83.9375 63.7703 79.5158 71.641 71.6452C79.5117 63.7745 83.9333 53.0996 83.9333 41.9688C83.9333 30.838 79.5117 20.163 71.641 12.2924C63.7703 4.4217 53.0954 0 41.9646 0H41.9689Z" fill="white"/>
<path d="M26.9923 2.75463C22.6271 4.4227 18.5721 6.8103 14.9957 9.81829C14.3404 10.3703 13.9313 11.1599 13.8582 12.0136C13.7852 12.8673 14.0542 13.715 14.6062 14.3703C15.1582 15.0256 15.9478 15.4348 16.8015 15.5078C17.6552 15.5809 18.5029 15.3118 19.1582 14.7598C22.1794 12.2167 25.606 10.1985 29.2952 8.78952C30.0608 8.46042 30.6695 7.84803 30.9939 7.08045C31.3184 6.31288 31.3334 5.44959 31.0359 4.67117C30.7385 3.89275 30.1515 3.2595 29.3979 2.90391C28.6443 2.54831 27.7823 2.4979 26.9923 2.76324V2.75463Z" fill="white"/>
<path d="M11.8372 41.9687C11.8372 47.9281 13.6043 53.7537 16.9152 58.7088C20.2261 63.6639 24.932 67.5259 30.4378 69.8065C35.9436 72.0871 42.002 72.6838 47.8469 71.5212C53.6918 70.3585 59.0608 67.4888 63.2747 63.2748C67.4887 59.0609 70.3584 53.692 71.521 47.847C72.6837 42.0021 72.087 35.9437 69.8064 30.4379C67.5258 24.9321 63.6638 20.2262 58.7087 16.9153C53.7536 13.6045 47.928 11.8373 41.9686 11.8373C33.9772 11.8373 26.3132 15.0118 20.6624 20.6626C15.0117 26.3133 11.8372 33.9774 11.8372 41.9687ZM41.9686 19.9082C42.6888 19.9082 43.3929 20.1218 43.9917 20.5219C44.5906 20.9221 45.0574 21.4908 45.333 22.1562C45.6086 22.8216 45.6807 23.5538 45.5402 24.2602C45.3997 24.9666 45.0529 25.6155 44.5436 26.1248C44.0343 26.6341 43.3854 26.9809 42.679 27.1214C41.9726 27.2619 41.2404 27.1898 40.575 26.9142C39.9096 26.6386 39.3408 26.1718 38.9407 25.573C38.5406 24.9741 38.327 24.27 38.327 23.5498C38.327 22.584 38.7106 21.6577 39.3936 20.9748C40.0765 20.2919 41.0028 19.9082 41.9686 19.9082ZM36.5105 56.9483H38.964V37.2338C38.3374 36.9537 37.8252 36.468 37.5121 35.8572C37.1991 35.2463 37.1039 34.5469 37.2425 33.8746C37.3811 33.2024 37.745 32.5975 38.2741 32.1603C38.8032 31.723 39.4658 31.4795 40.1521 31.4701H41.9686C42.7677 31.4701 43.5341 31.7875 44.0992 32.3526C44.6643 32.9177 44.9817 33.6841 44.9817 34.4832V56.9483H47.4353C47.8509 56.9131 48.2694 56.9646 48.6641 57.0995C49.0588 57.2343 49.4212 57.4497 49.7284 57.732C50.0355 58.0142 50.2808 58.3571 50.4485 58.739C50.6162 59.121 50.7029 59.5336 50.7029 59.9507C50.7029 60.3678 50.6162 60.7804 50.4485 61.1624C50.2808 61.5443 50.0355 61.8872 49.7284 62.1694C49.4212 62.4517 49.0588 62.6671 48.6641 62.802C48.2694 62.9368 47.8509 62.9883 47.4353 62.9531H36.5105C36.0948 62.9883 35.6764 62.9368 35.2817 62.802C34.887 62.6671 34.5245 62.4517 34.2174 62.1694C33.9102 61.8872 33.665 61.5443 33.4973 61.1624C33.3295 60.7804 33.2429 60.3678 33.2429 59.9507C33.2429 59.5336 33.3295 59.121 33.4973 58.739C33.665 58.3571 33.9102 58.0142 34.2174 57.732C34.5245 57.4497 34.887 57.2343 35.2817 57.0995C35.6764 56.9646 36.0948 56.9131 36.5105 56.9483Z" fill="white"/>
</svg>
