<svg width="85" height="93" viewBox="0 0 85 93" fill="none" xmlns="http://www.w3.org/2000/svg">
<path fill-rule="evenodd" clip-rule="evenodd" d="M26.6049 68.279H0V86.5853H14.9498L16.0132 88.4239L18.3348 92.4399L20.6493 88.4239L21.7163 86.5853H26.6083L26.6049 68.279ZM57.9544 52.77H57.9904C63.4772 52.7627 68.5427 49.8283 71.2818 45.0769C74.0179 40.3219 74.0143 34.4711 71.271 29.7192C68.5275 24.9714 63.4552 22.0441 57.9722 22.0441C52.4854 22.0441 47.4163 24.9714 44.6698 29.7192C41.9263 34.4705 41.9227 40.3213 44.6625 45.0769C47.3987 49.8283 52.4678 52.7628 57.9544 52.77ZM38.3578 60.3658C38.3398 60.3549 38.3254 60.3441 38.311 60.3297C38.0298 60.0918 37.7558 59.8538 37.4818 59.6051C35.9352 58.2208 34.4932 56.7283 33.163 55.1348C31.8327 53.545 30.6179 51.8542 29.5363 50.0842C28.4837 48.3717 27.5608 46.5801 26.7821 44.7271C26.6162 44.3774 26.71 43.9592 27.0092 43.7104L33.6099 38.3173L32.0742 27.1347C32.0273 26.6697 31.8579 26.2262 31.5767 25.8513C31.3928 25.6206 31.126 25.4728 30.8304 25.444L19.4531 24.4165C17.8633 29.9394 17.8165 35.7902 19.3197 41.3348C21.0105 47.8455 24.1433 53.8944 28.4909 59.0284C32.7664 64.2268 38.1563 68.3975 44.263 71.228C49.4506 73.701 55.2148 74.7032 60.9293 74.13L61.9532 62.7637H61.9568C61.982 62.4645 61.8883 62.1689 61.69 61.9454C61.3728 61.5993 60.9654 61.3506 60.5148 61.2208L49.7826 57.7095L43.3368 63.1999V63.1963C43.0556 63.4667 42.6266 63.5063 42.3022 63.2936C40.9286 62.4032 39.6128 61.4227 38.3619 60.3628L38.3578 60.3658ZM34.1508 66.9377C32.2906 70.3841 31.3172 74.2379 31.3208 78.1526V91.6064H43.0405V74.4361C43.0333 74.2054 43.1199 73.9855 43.2785 73.8233C43.4371 73.6574 43.6534 73.5673 43.8805 73.5673C44.1112 73.5673 44.3275 73.6575 44.4862 73.8233C44.6448 73.9855 44.7277 74.2054 44.7205 74.4361V91.6064H71.2322V74.4361C71.2322 73.9711 71.6071 73.5962 72.0721 73.5962C72.5336 73.5962 72.9085 73.9711 72.9085 74.4361V91.6064H84.6245V78.1526C84.6101 71.8726 82.1082 65.8524 77.6668 61.4069C73.2254 56.9655 67.205 54.46 60.9211 54.4419H55.0377C49.6301 54.4419 44.3885 56.2985 40.1848 59.7052C41.0031 60.365 41.8431 60.9778 42.6939 61.551L49.064 56.1291H49.0676C49.2875 55.9416 49.5903 55.8803 49.8643 55.9704L61.0358 59.6259V59.6295C61.7856 59.853 62.4598 60.2784 62.9789 60.8624C63.4656 61.4284 63.6963 62.1674 63.6242 62.9101L62.5355 74.9399V74.9363C62.503 75.322 62.211 75.6356 61.8289 75.6861V75.6933C55.5886 76.4864 49.2509 75.4662 43.5733 72.7552C40.2027 71.2159 37.0375 69.2619 34.1498 66.9367L34.1508 66.9377ZM29.7959 0H53.6146V16.3886H40.2254L39.2809 18.0324L37.2008 21.6266L35.1243 18.0324L34.1798 16.3886H29.7961L29.7959 0ZM48.8119 9.4411C49.2733 9.4411 49.6483 9.81603 49.6483 10.2775C49.6483 10.7389 49.2733 11.1138 48.8119 11.1138H34.5976C34.1362 11.1138 33.7613 10.7389 33.7613 10.2775C33.7613 9.81603 34.1362 9.4411 34.5976 9.4411H48.8119ZM48.8119 4.5022V4.49859C49.2733 4.49859 49.6519 4.87712 49.6519 5.34216C49.6519 5.80361 49.2733 6.18214 48.8119 6.18214H34.5976C34.1362 6.18214 33.7577 5.80361 33.7577 5.34216C33.7577 4.87711 34.1362 4.49859 34.5976 4.49859L48.8119 4.5022ZM21.9837 79.1155C22.2108 79.1083 22.4307 79.1948 22.5965 79.3535C22.7587 79.5085 22.8525 79.7284 22.8525 79.9555C22.8525 80.1826 22.7587 80.4025 22.5965 80.5611C22.4307 80.7197 22.2108 80.8027 21.9837 80.7955H6.11097C5.88386 80.8027 5.66394 80.7198 5.49812 80.5611C5.33589 80.4025 5.24217 80.1826 5.24217 79.9555C5.24217 79.7284 5.33589 79.5085 5.49812 79.3535C5.66395 79.1948 5.88386 79.1083 6.11097 79.1155H21.9837ZM21.9837 73.8486C22.4451 73.8486 22.8236 74.2235 22.8236 74.6886C22.8236 75.1536 22.4451 75.5286 21.9837 75.5286H14.7556C14.2906 75.5286 13.9157 75.1536 13.9157 74.6886C13.9157 74.2235 14.2906 73.8486 14.7556 73.8486H21.9837Z" fill="white"/>
</svg>
