<svg width="90" height="72" viewBox="0 0 90 72" fill="none" xmlns="http://www.w3.org/2000/svg">
<path fill-rule="evenodd" clip-rule="evenodd" d="M46.948 0.639724C45.562 -0.213241 43.8138 -0.213241 42.4277 0.639724L5.0527 23.6397C3.40951 24.6509 2.63792 26.6305 3.16338 28.487C3.68884 30.3435 5.38347 31.625 7.31287 31.625H14.5003V48.875H10.1879C7.8062 48.875 5.87543 50.8058 5.87543 53.1875C5.87543 55.5693 7.8062 57.5 10.1879 57.5H18.8012C18.8051 57.5001 18.809 57.5001 18.8128 57.5001C18.8167 57.5001 18.8206 57.5001 18.8244 57.5H36.0513C36.0552 57.5001 36.059 57.5001 36.0629 57.5001C36.0668 57.5001 36.0706 57.5001 36.0745 57.5H53.3014C53.3053 57.5001 53.3091 57.5001 53.313 57.5001C53.3169 57.5001 53.3207 57.5001 53.3246 57.5H70.5512C70.5551 57.5001 70.5589 57.5001 70.5628 57.5001C70.5667 57.5001 70.5705 57.5001 70.5744 57.5H79.1879C81.5697 57.5 83.5004 55.5693 83.5004 53.1875C83.5004 50.8058 81.5697 48.875 79.1879 48.875H74.8753V31.625H82.0629C83.9923 31.625 85.6869 30.3435 86.2124 28.487C86.7378 26.6305 85.9662 24.6509 84.323 23.6397L46.948 0.639724ZM66.2503 48.875V31.625H57.6255V48.875H66.2503ZM49.0005 48.875V31.625H40.3754V48.875H49.0005ZM31.7504 48.875V31.625H23.1253V48.875H31.7504ZM44.6879 9.37615L66.8266 23H22.5491L44.6879 9.37615Z" fill="white"/>
<path d="M4.43774 67.5625H84.9377" stroke="white" stroke-width="8.625" stroke-linecap="round" stroke-linejoin="round"/>
</svg>
