<svg width="93" height="97" viewBox="0 0 93 97" fill="none" xmlns="http://www.w3.org/2000/svg">
<path d="M14.6769 48.4588H89.1067C90.7581 48.4588 92.1023 49.799 92.1023 51.4543V53.2014C92.1023 54.8527 90.7621 56.1969 89.1067 56.1969L14.6769 56.1889C13.0256 56.1889 11.6814 54.8487 11.6814 53.1934V51.4464C11.6814 49.795 13.0216 48.4508 14.6769 48.4508V48.4588Z" fill="white"/>
<path d="M75.3504 62.3189L61.45 66.4033C61.462 66.7144 61.458 67.0136 61.438 67.3048C61.1788 71.3134 58.2431 74.644 54.2982 75.4098L53.4087 75.5814C48.2553 76.5706 43.0261 77.121 37.7806 77.2247L33.6244 77.3045C32.2284 77.3284 31.0756 76.2156 31.0477 74.8235C31.0198 73.4274 32.1327 72.2747 33.5287 72.2468L37.7647 72.1631C42.6947 72.0673 47.6049 71.5488 52.4473 70.6195L53.3328 70.4479C55.02 70.1249 56.2764 68.6969 56.3881 66.9818C56.448 65.9647 56.1129 64.9835 55.4388 64.2256C54.7528 63.4677 53.8194 63.021 52.8103 62.9651L30.5174 61.8044C28.0644 61.6768 25.6392 62.3708 23.6209 63.7709L1.50362 79.7972C-0.291285 81.0975 -0.514704 83.6862 1.02498 85.2777L11.3117 95.8922C12.5163 97.1367 14.4308 97.36 15.8907 96.4227L23.7166 91.4049L42.3754 93.5388C45.6063 93.9097 48.8531 93.0202 51.4497 91.0657L79.2627 70.1095C80.2719 69.3516 80.8902 68.2388 81.0058 66.9783C81.1254 65.7219 80.7226 64.5133 79.869 63.58C78.7322 62.3195 76.9971 61.8409 75.3457 62.3195L75.3504 62.3189Z" fill="white"/>
<path d="M21.1902 24.9523H35.3703C36.8103 24.9523 37.979 23.7876 37.979 22.3436C37.979 20.8997 36.8103 19.735 35.3703 19.735H21.1902C19.7502 19.735 18.5815 20.9036 18.5815 22.3436C18.5815 23.7836 19.7502 24.9523 21.1902 24.9523Z" fill="white"/>
<path d="M23.633 13.5691H37.8132C39.2532 13.5691 40.4219 12.4004 40.4219 10.9604C40.4219 9.52047 39.2532 8.35181 37.8132 8.35181H23.633C22.1931 8.35181 21.0244 9.51649 21.0244 10.9604C21.0244 12.4044 22.1931 13.5691 23.633 13.5691Z" fill="white"/>
<path d="M37.8132 31.123H23.633C22.1931 31.123 21.0244 32.2877 21.0244 33.7317C21.0244 35.1756 22.1931 36.3403 23.633 36.3403H37.8132C39.2532 36.3403 40.4219 35.1716 40.4219 33.7317C40.4219 32.2917 39.2532 31.123 37.8132 31.123Z" fill="white"/>
<path d="M43.1754 26.8998L47.2519 27.4941C47.7625 28.7266 47.9021 29.0576 48.4126 30.2942L45.9515 33.5929C45.2934 34.4744 45.3811 35.7029 46.1589 36.4807L49.5014 39.8272C50.2792 40.601 51.5077 40.6888 52.3892 40.0346L55.6879 37.5695C56.9244 38.0841 57.2556 38.2197 58.488 38.7263L59.0784 42.8027C59.2379 43.8917 60.1673 44.6974 61.2681 44.6974H65.9987C67.0996 44.6974 68.029 43.8917 68.1885 42.8027L68.7788 38.7263C70.0153 38.2197 70.3464 38.0801 71.5789 37.5695L74.8816 40.0346C75.7631 40.6887 76.9877 40.605 77.7654 39.8272L81.1119 36.4807C81.8897 35.7069 81.9775 34.4784 81.3193 33.5969L78.8543 30.2982C79.3688 29.0617 79.5044 28.7306 80.015 27.4981L84.0914 26.9038C85.1803 26.7482 85.9861 25.8149 85.9861 24.718V19.9874C85.9861 18.8865 85.1804 17.9571 84.0914 17.7976L80.015 17.2073C79.5004 15.9708 79.3688 15.6397 78.8543 14.4032L81.3193 11.1045C81.9735 10.223 81.8897 8.99449 81.1119 8.21671L77.7654 4.8742C76.9876 4.0964 75.7591 4.00467 74.8816 4.6628L71.5789 7.12388C70.3464 6.61333 70.0154 6.47772 68.7788 5.96717L68.1885 1.89467C68.033 0.805759 67.0996 0 65.9987 0H61.2681C60.1673 0 59.2379 0.805718 59.0784 1.89467L58.488 5.96717C57.2516 6.48172 56.9245 6.61334 55.6879 7.12388L52.3892 4.6628C51.5077 4.00467 50.2792 4.0964 49.5014 4.8742L46.1589 8.21671C45.3811 8.99052 45.2934 10.223 45.9515 11.1045L48.4206 14.4152C47.914 15.6437 47.7744 15.9747 47.2639 17.2073L43.1754 17.8016C42.0905 17.9612 41.2808 18.8865 41.2808 19.9914V24.722C41.2808 25.8189 42.0865 26.7523 43.1754 26.9078V26.8998ZM63.6375 13.9919C68.2524 13.9919 71.9899 17.7294 71.9899 22.3443C71.9899 26.9592 68.2524 30.6967 63.6375 30.6967C59.0226 30.6967 55.2851 26.9592 55.2851 22.3443C55.2851 17.7294 59.0226 13.9919 63.6375 13.9919Z" fill="white"/>
</svg>
