<svg width="93" height="93" viewBox="0 0 93 93" fill="none" xmlns="http://www.w3.org/2000/svg">
<path d="M29.4193 80.3666C28.0227 80.3613 26.6848 79.8042 25.6972 78.8166C24.7096 77.829 24.1525 76.4911 24.1472 75.0945V69.6413C24.1472 68.9169 25.5558 70.5468 4.14526 49.1363C4.70948 57.1993 7.5743 64.9314 12.3999 71.4156C17.2256 77.8997 23.8096 82.8638 31.3712 85.7193C30.687 81.4935 30.8078 80.3666 29.4193 80.3666Z" fill="white"/>
<path d="M47.4291 54.0057C46.0607 54.0057 38.877 55.8771 33.5646 49.5385C30.1639 45.5139 27.89 43.5017 27.89 39.8796C27.888 38.1544 28.4635 36.4781 29.5247 35.1179C30.5859 33.7576 32.0718 32.7917 33.7457 32.3738C36.4622 31.7098 37.7702 31.6494 38.716 29.939C44.1088 20.4814 44.0887 20.8033 44.0887 19.8777C44.0871 19.3189 43.9206 18.773 43.61 18.3085C43.2994 17.844 42.8585 17.4816 42.3427 17.2667C41.8269 17.0517 41.2591 16.9939 40.7106 17.1004C40.162 17.2069 39.6572 17.4731 39.2593 17.8654L36.8446 20.2801C35.8545 21.1995 34.5534 21.7104 33.2024 21.7104C31.8513 21.7104 30.5502 21.1995 29.5602 20.2801C28.7247 19.4337 28.2064 18.3251 28.0928 17.1412C27.9792 15.9573 28.2771 14.7704 28.9364 13.7805C29.4985 12.8644 29.7773 11.8027 29.738 10.7287C29.6986 9.65461 29.3427 8.61615 28.715 7.74371C26.8637 8.58886 28.1717 7.42175 28.1717 11.9493C28.1717 19.7569 17.2652 32.3135 15.0719 34.7483C14.6951 35.1714 14.2333 35.5102 13.7167 35.7425C13.2 35.9748 12.6401 36.0955 12.0736 36.0965C9.73936 36.0965 8.67286 34.3861 6.55998 31.7702C5.22922 35.4289 4.41645 39.2557 4.14526 43.1395C4.63466 43.1624 5.09886 43.3631 5.4508 43.704C5.80275 44.0448 6.01826 44.5023 6.05692 44.9907C6.05692 45.5743 4.64833 43.9242 26.6223 65.8982C30.184 69.4196 26.3607 76.3418 29.4193 76.3418C30.6759 76.3352 31.8935 76.7775 32.8527 77.5892C33.812 78.4009 34.4498 79.5285 34.6512 80.7688C35.6573 86.8056 35.6573 86.4032 35.4762 87.027C43.689 89.1853 52.3607 88.8278 60.3679 86.0007C60.3679 62.4572 60.3679 64.2682 60.3679 63.7451L53.8683 56.6418C52.1464 54.9591 49.8366 54.0135 47.4291 54.0057Z" fill="white"/>
<path d="M86.1217 60.2436C87.2818 56.9968 88.0255 53.6161 88.3352 50.1823C79.28 50.1823 74.2493 51.2085 70.2248 46.2583L59.7207 33.4C58.0359 31.3492 57.173 28.7456 57.2994 26.0945C57.4258 23.4433 58.5326 20.9337 60.4049 19.0525C60.5525 18.9168 60.6703 18.752 60.7509 18.5684C60.8315 18.3848 60.8731 18.1865 60.8731 17.986C60.8731 17.7855 60.8315 17.5872 60.7509 17.4036C60.6703 17.2201 60.5525 17.0552 60.4049 16.9195C58.7146 15.1487 55.495 20.0586 50.9674 15.5311C50.0295 14.5883 49.4625 13.3393 49.3701 12.0127C49.2778 10.6862 49.6662 9.37067 50.4643 8.30702L53.3821 4.50384C46.3734 3.30418 39.1754 3.89249 32.4545 6.21426C33.3551 7.69355 33.8095 9.40136 33.7631 11.1326C33.7167 12.8638 33.1715 14.5448 32.193 15.9738C32.0412 16.203 31.9802 16.4805 32.0219 16.7523C32.0636 17.0241 32.2049 17.2706 32.4183 17.4438C32.6318 17.6171 32.9021 17.7047 33.1766 17.6897C33.4511 17.6746 33.7102 17.5578 33.9034 17.3622L36.3181 14.9475C37.4951 13.7908 39.0495 13.0971 40.6964 12.9934C42.3434 12.8897 43.9725 13.383 45.2853 14.3828C46.5981 15.3827 47.5066 16.8222 47.8443 18.4375C48.182 20.0527 47.9262 21.7356 47.124 23.1777C42.2342 31.77 41.4695 34.5671 37.2639 35.6336C34.4064 36.3379 32.7564 36.4787 32.0118 38.7325C31.8203 39.3362 31.7825 39.9781 31.902 40.6001C32.0215 41.2221 32.2944 41.8044 32.696 42.2942C36.3181 46.6608 39.0145 51.1884 45.1721 50.142C47.2559 49.8107 49.3884 49.9731 51.398 50.6162C53.4076 51.2593 55.2382 52.3651 56.7426 53.8446C64.5703 62.2559 62.1153 60.2436 64.3892 60.2436H86.1217Z" fill="white"/>
<path d="M57.6772 12.7344C58.5092 12.4615 59.394 12.3893 60.2592 12.5235C61.1245 12.6577 61.9457 12.9946 62.6559 13.5067C63.3662 14.0188 63.9453 14.6915 64.346 15.47C64.7467 16.2486 64.9577 17.1108 64.9616 17.9864C64.9616 22.0109 61.3798 22.1115 61.3798 26.619C61.3798 29.7783 62.0841 29.8588 73.4534 43.7233C76.1096 46.9831 79.0073 46.1581 88.5454 46.1581C88.5476 36.9058 85.513 27.9084 79.9077 20.5473C74.3023 13.1862 66.436 7.86821 57.5163 5.40973C57.3955 5.97316 57.5163 5.71157 53.7533 10.7221C53.52 11.014 53.405 11.383 53.4311 11.7557C53.4572 12.1285 53.6225 12.4778 53.8942 12.7344C55.1418 13.9619 55.4638 13.4789 57.6772 12.7344Z" fill="white"/>
<path d="M80.4899 64.2684H76.4653V68.2929H80.4899V64.2684Z" fill="white"/>
<path d="M84.513 64.2684V70.3052C84.513 70.8389 84.301 71.3507 83.9237 71.7281C83.5463 72.1054 83.0345 72.3174 82.5008 72.3174H74.4517C73.918 72.3174 73.4062 72.1054 73.0288 71.7281C72.6514 71.3507 72.4394 70.8389 72.4394 70.3052V64.2684H64.3904V92.4401H92.5621V64.2684H84.513Z" fill="white"/>
<path d="M12.0736 32.072C16.2993 27.3633 25.1131 16.4769 24.0063 10.2389C23.5456 7.24197 21.974 4.52815 19.6041 2.6368C17.2342 0.74545 14.2394 -0.184941 11.2149 0.0305485C8.19044 0.246038 5.35779 1.59163 3.27995 3.79988C1.20211 6.00812 0.0312168 8.91734 0 11.9493C0 17.4629 8.43139 28.0474 12.0736 32.072ZM12.0736 7.92478C12.8696 7.92478 13.6477 8.16081 14.3095 8.60303C14.9713 9.04525 15.4872 9.6738 15.7918 10.4092C16.0964 11.1446 16.1761 11.9538 16.0208 12.7345C15.8655 13.5151 15.4822 14.2322 14.9194 14.7951C14.3565 15.3579 13.6394 15.7412 12.8587 15.8965C12.0781 16.0518 11.2689 15.9721 10.5335 15.6675C9.79808 15.3629 9.16954 14.847 8.72732 14.1852C8.2851 13.5234 8.04906 12.7453 8.04906 11.9493C8.04906 10.8819 8.47307 9.85828 9.22782 9.10354C9.98256 8.34879 11.0062 7.92478 12.0736 7.92478Z" fill="white"/>
</svg>
