<?xml version="1.0" encoding="UTF-8"?>
<svg version="1.1" xmlns="http://www.w3.org/2000/svg" width="512" height="512">
<path d="M0 0 C0.52271484 0.43393066 1.04542969 0.86786133 1.58398438 1.31494141 C13.92823131 11.57248981 25.10275756 22.32520107 35 35 C35.77730469 35.96035156 36.55460937 36.92070313 37.35546875 37.91015625 C77.55887885 88.46802174 94.12026856 153.18102674 87.36376953 216.95996094 C81.37807389 266.9827006 60.23641063 313.34310121 26.28125 350.49609375 C24.76460508 352.16076737 23.26436472 353.84054101 21.78125 355.53515625 C-17.77719061 400.59556307 -79.23176576 426.84108115 -138.375 430.6875 C-140.91586908 430.8095838 -143.45763251 430.91463194 -146 431 C-147.13566406 431.04125 -148.27132812 431.0825 -149.44140625 431.125 C-206.20468278 432.13976249 -264.70581282 413.24154588 -308 376 C-309.1034281 375.07854194 -310.20766106 374.15804722 -311.3125 373.23828125 C-321.72142363 364.5160281 -331.35605843 355.39175268 -339.828125 344.7265625 C-341.24579057 342.94683126 -342.69284997 341.19001353 -344.171875 339.4609375 C-383.80084152 292.94608672 -400.85455769 228.55527539 -396.25 168.375 C-392.02338693 119.61290794 -374.15405926 71.37986239 -342 34 C-341.07854194 32.8965719 -340.15804722 31.79233894 -339.23828125 30.6875 C-330.5160281 20.27857637 -321.39175268 10.64394157 -310.7265625 2.171875 C-308.94683126 0.75420943 -307.19001353 -0.69284997 -305.4609375 -2.171875 C-274.144648 -28.85221832 -233.30826399 -45.46669095 -193 -52 C-191.98655518 -52.16556396 -191.98655518 -52.16556396 -190.95263672 -52.33447266 C-123.74291224 -62.98537733 -52.13512499 -43.89905463 0 0 Z M-311 23 C-311.9266748 23.87785156 -311.9266748 23.87785156 -312.87207031 24.7734375 C-323.03521574 34.44020828 -331.86439839 44.57923859 -340 56 C-340.44005371 56.60602051 -340.88010742 57.21204102 -341.33349609 57.83642578 C-376.17401276 106.07816997 -388.21628543 167.77105905 -379 226 C-371.33017543 270.90988356 -350.51225757 312.16192184 -319 345 C-318.41476562 345.6177832 -317.82953125 346.23556641 -317.2265625 346.87207031 C-307.55979172 357.03521574 -297.42076141 365.86439839 -286 374 C-285.39397949 374.44005371 -284.78795898 374.88010742 -284.16357422 375.33349609 C-236.73919383 409.58370705 -175.75058577 421.85955434 -118.36816406 413.55224609 C-82.34300746 407.64554095 -47.00442036 393.29388608 -18 371 C-17.10023438 370.31164062 -16.20046875 369.62328125 -15.2734375 368.9140625 C-9.27223761 364.21343225 -3.53482263 359.24016053 2 354 C2.62326172 353.4107373 3.24652344 352.82147461 3.88867188 352.21435547 C14.36739753 342.22387696 23.69645137 331.86692579 32 320 C32.47630859 319.32001953 32.95261719 318.64003906 33.44335938 317.93945312 C57.39641729 283.28185622 72.84588279 241.36571919 74 199 C74.02578125 198.22640137 74.0515625 197.45280273 74.078125 196.65576172 C75.88445874 135.88392084 54.04772555 77.74064033 13 33 C-13.33025092 5.11107314 -44.78334067 -15.35618355 -81 -28 C-81.68594238 -28.24588867 -82.37188477 -28.49177734 -83.07861328 -28.74511719 C-161.21705878 -56.52855634 -251.88479717 -33.72845678 -311 23 Z " fill="#000000" transform="translate(410,68)"/>
</svg>
